<?xml version="1.0" encoding="UTF-8" standalone="no"?>
<!DOCTYPE svg  PUBLIC '-//W3C//DTD SVG 1.1//EN'  'http://www.w3.org/Graphics/SVG/1.1/DTD/svg11.dtd'>
<svg xmlns="http://www.w3.org/2000/svg" version="1.1">
<defs>
<font id="ClanOT-News" horiz-adv-x="399">
<font-face underline-position="-119" descent="-200" font-weight="450" x-height="596" unicode-range="U+000D-FB02" bbox="-126 -233 1050 959" cap-height="750" panose-1="2 0 5 3 3 0 0 2 0 4" underline-thickness="39" units-per-em="1000" font-family="ClanOT" ascent="800"/>
<missing-glyph horiz-adv-x="620" d="M145 62h330v626h-330v-626zM83 0v750h454v-750h-454z"/>
<glyph horiz-adv-x="697" d="M603 749q0 -52 -62 -52t-62 52q0 51 62 51t62 -51zM216 523v-523h-94v523h-89v73h88v27q0 79 48.5 126t147.5 47q46 0 80 -9l-3 -66q-28 7 -58 7q-120 0 -120 -106v-26h372v-596h-96v523h-276z" unicode="fi" glyph-name="fi"/>
<glyph horiz-adv-x="667" d="M564 0h-94v725q-68 8 -102 8q-82 0 -117 -28t-35 -84v-25h125v-73h-125v-523h-95v523h-88v73h88v28q0 176 248 176q43 0 106 -6.5t89 -7.5v-786z" unicode="fl" glyph-name="fl"/>
<glyph horiz-adv-x="620" d="M145 62h330v626h-330v-626zM83 0v750h454v-750h-454z" glyph-name=".notdef"/>
<glyph horiz-adv-x="0" glyph-name=".null"/>
<glyph horiz-adv-x="0" glyph-name=".null"/>
<glyph horiz-adv-x="333" glyph-name="nonmarkingreturn"/>
<glyph horiz-adv-x="300" unicode="" glyph-name="CR"/>
<glyph horiz-adv-x="300" unicode=" " glyph-name="space"/>
<glyph horiz-adv-x="303" d="M214 45q0 -56 -61 -56t-61 56q0 57 61 57t61 -57zM186 201h-72l-15 549h103z" unicode="!" glyph-name="exclam"/>
<glyph horiz-adv-x="386" d="M59 770h96l-19 -241h-63zM239 770h96l-19 -241h-63z" unicode='&quot;' glyph-name="quotedbl"/>
<glyph horiz-adv-x="642" d="M276 461l-27 -168h115l27 168h-115zM55 293h119l28 168h-146v76h156l30 213h76l-31 -213h114l31 213h74l-31 -213h112v-76h-123l-26 -168h148v-76h-158l-32 -217h-73l31 217h-115l-31 -217h-75l31 217h-109v76z" unicode="#" glyph-name="numbersign"/>
<glyph horiz-adv-x="600" d="M144 563q0 -42 35 -66.5t102 -46.5l23 221q-80 -1 -120 -30t-40 -78zM468 195q-1 47 -37.5 76t-104.5 54l-27 -253q169 1 169 123zM283 -83l-55 5l6 67q-110 10 -177 50q8 66 12 94q81 -48 174 -58l28 270q-50 18 -80 32t-65.5 39t-52.5 60.5t-17 81.5q0 97 66.5 149.5 t190.5 54.5l7 65l60 -4l-7 -64q81 -7 136 -33l-7 -89q-68 25 -139 31l-25 -237q46 -16 77.5 -31.5t64.5 -41t50 -63.5t17 -88q0 -112 -62.5 -165.5t-194.5 -55.5z" unicode="$" glyph-name="dollar"/>
<glyph horiz-adv-x="711" d="M597 166q0 64 -17.5 88t-58.5 24q-42 0 -60 -24t-18 -88q0 -63 18 -87t59 -24t59 24t18 87zM663 166q0 -90 -35.5 -132.5t-107.5 -42.5q-74 0 -108.5 42t-34.5 133q0 93 33.5 135t110.5 42q72 0 107 -41.5t35 -135.5zM515 734l56 -43l-389 -676l-57 43zM268 589 q0 64 -18 88t-59 24q-42 0 -60 -24t-18 -88t18.5 -88t59.5 -24t59 24t18 88zM333 588q0 -90 -35.5 -132.5t-106.5 -42.5q-74 0 -108.5 42t-34.5 133q0 92 33.5 133t109.5 41q73 0 107.5 -40t34.5 -134z" unicode="%" glyph-name="percent"/>
<glyph horiz-adv-x="694" d="M211 592q0 -48 47 -122q44 30 66.5 48.5t43.5 46t21 54.5q0 32 -22 50t-61 18q-42 0 -68.5 -25t-26.5 -70zM269 78q83 0 156 75q-109 95 -189 200q-91 -79 -91 -160q0 -54 34 -84.5t90 -30.5zM683 77l-34 -86q-75 40 -159 107q-102 -111 -236 -111q-105 0 -155.5 56.5 t-50.5 142.5q0 73 37.5 128t103.5 106q-66 103 -66 172q0 77 45.5 123.5t140.5 46.5q80 0 126.5 -37t46.5 -98q0 -32 -12.5 -61t-39.5 -56.5t-50 -46t-61 -47.5q-4 -3 -5.5 -4l-4.5 -3t-5 -4q70 -90 175 -182q48 77 64 161l81 1q-11 -104 -80 -215q73 -57 139 -93z" unicode="&amp;" glyph-name="ampersand"/>
<glyph horiz-adv-x="207" d="M55 770h96l-19 -241h-63z" unicode="&apos;" glyph-name="quotesingle"/>
<glyph horiz-adv-x="332" d="M252 796l77 -6q-145 -202 -145 -458q0 -254 144 -458l-76 -6q-75 86 -116.5 206.5t-41.5 257.5q0 273 158 464z" unicode="(" glyph-name="parenleft"/>
<glyph horiz-adv-x="331" d="M3 790l77 6q157 -190 157 -464q0 -136 -41.5 -256.5t-115.5 -207.5l-76 6q143 205 143 458q0 255 -144 458z" unicode=")" glyph-name="parenright"/>
<glyph horiz-adv-x="359" d="M157 791h48l5 -112l107 29l17 -50l-107 -37l67 -95l-37 -31l-76 91l-77 -91l-39 29l67 97l-107 37l18 50l107 -29z" unicode="*" glyph-name="asterisk"/>
<glyph horiz-adv-x="597" d="M524 294h-186v-182h-84v182h-181v90h181v185h84v-185h186v-90z" unicode="+" glyph-name="plus"/>
<glyph horiz-adv-x="250" d="M124 110q62 0 62 -66q0 -28 -23.5 -86.5t-49.5 -99.5l-34 9l26 123q-17 5 -29 21t-12 35q0 64 60 64z" unicode="," glyph-name="comma"/>
<glyph horiz-adv-x="405" d="M70 376h265v-71h-265v71z" unicode="-" glyph-name="hyphen"/>
<glyph horiz-adv-x="252" d="M188 51q0 -62 -62 -62q-33 0 -47.5 14.5t-14.5 47.5q0 61 62 61t62 -61z" unicode="." glyph-name="period"/>
<glyph horiz-adv-x="441" d="M354 794h82l-345 -920h-80z" unicode="/" glyph-name="slash"/>
<glyph horiz-adv-x="649" d="M494 375q0 118 -19 182.5t-54 88t-96 23.5q-62 0 -97.5 -23.5t-54.5 -88.5t-19 -182q0 -119 19.5 -184.5t54.5 -88.5t97 -23t97 23.5t53.5 88.5t18.5 184zM592 374q0 -206 -63 -295.5t-204 -89.5q-143 0 -205.5 89t-62.5 296q0 211 62 298t206 87q143 0 205 -87t62 -298z " unicode="0" glyph-name="zero"/>
<glyph horiz-adv-x="649" d="M181 0v76h133v464l2 80l-2 2l-68 -44l-92 -58l-11 87l214 145h59v-676h130v-76h-365z" unicode="1" glyph-name="one"/>
<glyph horiz-adv-x="649" d="M568 552q0 -45 -18 -91.5t-45 -86t-76 -90t-93 -90.5t-115 -99v-3h351l-3 -92h-483v69q28 26 80.5 75t80 75.5t68.5 68t63 69.5t45 62t33 64t10 59q0 56 -39.5 90t-120.5 34q-103 0 -193 -73l-27 83q101 82 236 82q118 0 182 -54.5t64 -151.5z" unicode="2" glyph-name="two"/>
<glyph horiz-adv-x="649" d="M580 224q0 -109 -68.5 -171t-206.5 -62q-127 0 -225 60l21 82q91 -55 202 -55q90 0 135 40.5t45 109.5t-54.5 100t-184.5 31v75q119 0 171 31.5t52 94.5q0 54 -41 81.5t-117 27.5q-111 0 -199 -72l-26 80q95 81 230 81q116 0 180.5 -49.5t64.5 -141.5q0 -123 -123 -166 v-2q144 -38 144 -175z" unicode="3" glyph-name="three"/>
<glyph horiz-adv-x="649" d="M419 250l5 332l3 81l-2 1l-42 -70l-168 -276l-43 -65l1 -3h246zM599 163h-91v-163h-92v163h-347l-8 65l326 522h121v-500h94z" unicode="4" glyph-name="four"/>
<glyph horiz-adv-x="649" d="M571 256q0 -265 -262 -265q-127 0 -218 60l19 84q92 -57 191 -57q89 0 131 42t42 127q0 74 -40.5 107.5t-126.5 33.5q-98 0 -174 -38l-38 39l30 361h409l4 -92h-335l-17 -209q67 24 147 24q238 0 238 -217z" unicode="5" glyph-name="five"/>
<glyph horiz-adv-x="649" d="M485 259q0 72 -37 106t-117 34q-44 0 -92.5 -20t-75.5 -52q2 -137 40.5 -193t125.5 -56q156 0 156 181zM582 258q0 -133 -64.5 -200t-188.5 -67q-134 0 -200 83.5t-66 277.5q0 407 313 407q89 0 166 -30l-9 -88q-69 26 -145 26q-110 0 -166.5 -61t-63.5 -192l3 -2 q82 66 188 66q119 0 176 -54.5t57 -165.5z" unicode="6" glyph-name="six"/>
<glyph horiz-adv-x="649" d="M590 749v-86l-317 -663h-113l331 652h-424l5 97h518z" unicode="7" glyph-name="seven"/>
<glyph horiz-adv-x="649" d="M183 563q0 -26 11 -47t24.5 -33.5t43 -25.5t47 -18.5t56.5 -16.5q107 51 107 137q0 117 -147 117q-142 0 -142 -113zM491 201q0 19 -5.5 35t-12 27.5t-22 23.5t-25 18.5t-33 16t-33.5 13t-39 12.5t-38 12q-126 -57 -126 -152q0 -69 40 -101.5t131 -32.5q163 0 163 128z M62 208q0 61 35.5 110t97.5 77v3q-104 52 -104 169q0 191 235 191q234 0 234 -191q0 -115 -109 -173v-2q64 -25 100.5 -67.5t36.5 -116.5q0 -217 -262 -217q-135 0 -199.5 54t-64.5 163z" unicode="8" glyph-name="eight"/>
<glyph horiz-adv-x="649" d="M483 448q-3 224 -172 224q-155 0 -155 -145q0 -146 162 -146q109 0 165 67zM581 412q0 -222 -73.5 -321.5t-225.5 -99.5q-97 0 -174 35l14 84q72 -31 151 -31q106 0 157 66t57 214l-2 1q-72 -60 -183 -60q-121 0 -181 59t-60 164q0 112 63 174t188 62q129 0 199 -87.5 t70 -259.5z" unicode="9" glyph-name="nine"/>
<glyph horiz-adv-x="252" d="M188 51q0 -62 -62 -62q-33 0 -47.5 14.5t-14.5 47.5q0 61 62 61t62 -61zM188 505q0 -62 -62 -62q-33 0 -47.5 14.5t-14.5 47.5q0 61 62 61t62 -61z" unicode=":" glyph-name="colon"/>
<glyph horiz-adv-x="256" d="M126 110q62 0 62 -66q0 -28 -23.5 -86.5t-49.5 -99.5l-34 9l26 123q-17 5 -29 21t-12 35q0 64 60 64zM192 505q0 -62 -62 -62q-33 0 -47.5 14.5t-14.5 47.5q0 61 62 61t62 -61z" unicode=";" glyph-name="semicolon"/>
<glyph horiz-adv-x="597" d="M507 484l-228 -113l-73 -33v-3l73 -34l228 -110v-94l-417 215v48l417 222v-98z" unicode="&lt;" glyph-name="less"/>
<glyph horiz-adv-x="597" d="M520 204h-444v78h444v-78zM520 387h-444v78h444v-78z" unicode="=" glyph-name="equal"/>
<glyph horiz-adv-x="597" d="M90 97v94l226 110l74 34v3l-74 34l-226 112l1 98l416 -222v-48z" unicode="&gt;" glyph-name="greater"/>
<glyph horiz-adv-x="513" d="M307 45q0 -56 -60 -56q-32 0 -46.5 13t-14.5 43q0 57 61 57q60 0 60 -57zM469 583q0 -81 -46.5 -141t-135.5 -108l-4 -133h-75l-6 170q88 53 129 97t41 101q0 103 -127 103q-99 0 -176 -69l-35 77q38 37 97 59.5t126 22.5q105 0 158.5 -46.5t53.5 -132.5z" unicode="?" glyph-name="question"/>
<glyph horiz-adv-x="862" d="M489 306l27 158q-19 36 -66 36q-56 0 -96 -64t-40 -147q0 -49 19.5 -74t53.5 -25q37 0 65.5 33t36.5 83zM447 570q63 0 89 -43h3l15 36l53 -4l-44 -261q-3 -18 -3 -35q0 -79 68 -79q57 0 91.5 56t34.5 166q0 144 -78 234t-221 90q-111 0 -190.5 -54t-117 -140.5 t-37.5 -194.5q0 -173 87.5 -281t257.5 -108q185 0 291 99l23 -53q-122 -104 -313 -104q-193 0 -299 120.5t-106 326.5q0 90 26.5 170.5t76 142.5t127.5 98.5t175 36.5q163 0 259 -106.5t96 -276.5q0 -144 -54 -216.5t-138 -72.5q-91 0 -114 78l-3 1q-49 -79 -136 -79 q-59 0 -95 43.5t-36 128.5q0 112 62 196.5t150 84.5z" unicode="@" glyph-name="at"/>
<glyph horiz-adv-x="711" d="M354 675l-25 -78l-111 -329h271l-109 329l-23 78h-3zM578 0l-60 179h-330l-60 -179h-110l276 750h122l277 -750h-115z" unicode="A" glyph-name="A"/>
<glyph horiz-adv-x="686" d="M497 545q0 61 -30.5 88t-97.5 27h-173v-232h180q121 0 121 117zM523 221q0 65 -34.5 96t-107.5 31h-185v-260h189q69 0 103.5 30.5t34.5 102.5zM625 213q0 -213 -241 -213h-287v750h275q223 0 223 -187q0 -130 -107 -166v-2q137 -32 137 -182z" unicode="B" glyph-name="B"/>
<glyph horiz-adv-x="606" d="M563 728l-13 -92q-67 31 -157 31q-121 0 -173 -63.5t-52 -221.5q0 -169 52.5 -235.5t175.5 -66.5q85 0 157 36l13 -86q-86 -44 -183 -44q-167 0 -245 95.5t-78 300.5q0 194 79.5 287.5t248.5 93.5q99 0 175 -35z" unicode="C" glyph-name="C"/>
<glyph horiz-adv-x="737" d="M570 378q0 158 -49 217t-168 59h-154v-559h155q116 0 166 59.5t50 223.5zM677 378q0 -201 -78 -289.5t-243 -88.5h-259v750h257q171 0 247 -87.5t76 -284.5z" unicode="D" glyph-name="D"/>
<glyph horiz-adv-x="623" d="M199 93h379l-3 -93h-478v750h461l3 -94h-362v-223h310v-86h-310v-254z" unicode="E" glyph-name="E"/>
<glyph horiz-adv-x="594" d="M560 653h-360v-230h302l-1 -91h-301v-332h-103v750h461z" unicode="F" glyph-name="F"/>
<glyph horiz-adv-x="679" d="M616 397v-368q-89 -43 -218 -43q-177 0 -257.5 92.5t-80.5 294.5q0 204 82 297t259 93q110 0 199 -37l-12 -92q-83 35 -182 35q-129 0 -183.5 -64.5t-54.5 -230.5q0 -163 51.5 -227.5t175.5 -64.5q74 0 130 21v294h91z" unicode="G" glyph-name="G"/>
<glyph horiz-adv-x="753" d="M656 0h-103v341h-354v-341h-102v750h102v-314h354v314h103v-750z" unicode="H" glyph-name="H"/>
<glyph horiz-adv-x="323" d="M109 0v750h105v-750h-105z" unicode="I" glyph-name="I"/>
<glyph horiz-adv-x="550" d="M453 750v-497q0 -135 -68.5 -201t-196.5 -66q-90 0 -151 41l8 91q51 -38 130 -38q174 0 174 174v496h104z" unicode="J" glyph-name="J"/>
<glyph horiz-adv-x="703" d="M677 0h-128l-241 346h-109v-346h-102v750h102v-317h111l230 317h122l-259 -355z" unicode="K" glyph-name="K"/>
<glyph horiz-adv-x="573" d="M200 96h349l-3 -96h-449v750h103v-654z" unicode="L" glyph-name="L"/>
<glyph horiz-adv-x="915" d="M97 750h116l215 -530l29 -75h3l28 75l215 530h115v-750h-93v496l2 81l-3 1l-29 -76l-203 -502h-72l-202 498l-29 76l-2 -1l1 -81v-492h-91v750z" unicode="M" glyph-name="M"/>
<glyph horiz-adv-x="758" d="M661 0h-73l-354 516l-44 68l-2 -1l1 -81v-502h-92v750h93l380 -567l2 1l-2 80v486h91v-750z" unicode="N" glyph-name="N"/>
<glyph horiz-adv-x="741" d="M574 375q0 115 -20.5 178.5t-63 88.5t-119.5 25q-113 0 -158 -61.5t-45 -230.5q0 -168 45 -230.5t158 -62.5t158 62.5t45 230.5zM681 375q0 -208 -71.5 -298.5t-238.5 -90.5q-166 0 -238.5 91.5t-72.5 297.5t72 296.5t239 90.5t238.5 -90t71.5 -297z" unicode="O" glyph-name="O"/>
<glyph horiz-adv-x="652" d="M503 515q0 80 -37 113t-120 33h-147v-294h147q83 0 120 32.5t37 115.5zM608 515q0 -118 -62.5 -176t-199.5 -58h-147v-281h-102v750h249q138 0 200 -56t62 -179z" unicode="P" glyph-name="P"/>
<glyph horiz-adv-x="741" d="M574 375q0 115 -20.5 178.5t-63 88.5t-119.5 25q-113 0 -158 -61.5t-45 -230.5q0 -168 45 -230.5t158 -62.5t158 62.5t45 230.5zM681 375q0 -180 -52.5 -270.5t-172.5 -109.5v-3l66 -45l97 -69l-128 -32l-140 140q-155 5 -223 97t-68 292q0 206 72 296.5t239 90.5 t238.5 -90t71.5 -297z" unicode="Q" glyph-name="Q"/>
<glyph horiz-adv-x="662" d="M486 532q0 70 -32 99.5t-103 29.5h-152v-264h148q73 0 106 31t33 104zM592 536q0 -86 -38 -137.5t-109 -63.5l196 -335h-122l-169 316h-151v-316h-102v750h254q123 0 182 -52.5t59 -161.5z" unicode="R" glyph-name="R"/>
<glyph horiz-adv-x="568" d="M527 214q0 -107 -66.5 -167.5t-189.5 -60.5q-122 0 -220 57l16 93q94 -57 203 -57q78 0 118 33.5t40 94.5q0 46 -38 76t-92.5 48t-109.5 40t-93 67t-38 114q0 94 62 152t185 58q115 0 198 -40l-14 -89q-92 36 -179 36q-79 0 -116 -31t-37 -80q0 -44 38 -72.5t92.5 -46 t109.5 -39.5t93 -68.5t38 -117.5z" unicode="S" glyph-name="S"/>
<glyph horiz-adv-x="583" d="M566 654h-223v-654h-104v654h-223l3 96h545z" unicode="T" glyph-name="T"/>
<glyph horiz-adv-x="736" d="M653 750v-480q0 -284 -285 -284q-286 0 -286 284v480h102v-479q0 -97 45 -142.5t139 -45.5t138.5 45.5t44.5 142.5v479h102z" unicode="U" glyph-name="U"/>
<glyph horiz-adv-x="693" d="M564 750h108l-267 -750h-117l-267 750h114l189 -575l24 -77h3l23 77z" unicode="V" glyph-name="V"/>
<glyph horiz-adv-x="1010" d="M450 750h114l137 -571l18 -79h3l15 79l123 571h102l-181 -750h-125l-133 571l-16 80h-3l-17 -80l-132 -571h-125l-182 750h107l123 -574l16 -79h3l17 79z" unicode="W" glyph-name="W"/>
<glyph horiz-adv-x="697" d="M645 750l-223 -359l238 -391h-118l-194 330l-190 -330h-120l233 389l-226 361h124l180 -302l178 302h118z" unicode="X" glyph-name="X"/>
<glyph horiz-adv-x="671" d="M21 750h118l163 -329l35 -73h3l33 73l163 329h113l-260 -496v-254h-104v254z" unicode="Y" glyph-name="Y"/>
<glyph horiz-adv-x="617" d="M562 0h-514v69l346 518l45 65l-1 2h-379l4 96h500v-78l-342 -511l-45 -63l1 -3h388z" unicode="Z" glyph-name="Z"/>
<glyph horiz-adv-x="326" d="M94 -128v922h229v-71h-143v-781h144v-70h-230z" unicode="[" glyph-name="bracketleft"/>
<glyph horiz-adv-x="384" d="M8 794h78l302 -920h-77z" unicode="\" glyph-name="backslash"/>
<glyph horiz-adv-x="327" d="M232 794v-922h-229v69h144v782h-144v71h229z" unicode="]" glyph-name="bracketright"/>
<glyph horiz-adv-x="649" d="M505 463l-180 268l-179 -268h-80l226 341h67l224 -341h-78z" unicode="^" glyph-name="asciicircum"/>
<glyph horiz-adv-x="429" d="M27 -45h378v-62h-378v62z" unicode="_" glyph-name="underscore"/>
<glyph d="M286 662h-74l-109 143h114z" unicode="`" glyph-name="grave"/>
<glyph horiz-adv-x="573" d="M405 169v103q-37 22 -119 22q-142 0 -142 -111q0 -114 120 -114q55 0 98 31t43 69zM427 0l-9 73l-3 1q-27 -39 -73.5 -61t-103.5 -22q-85 0 -134 47t-49 144q0 86 54.5 133.5t159.5 47.5q72 0 137 -23v59q0 69 -32.5 98t-106.5 29q-91 0 -167 -36l-9 79q85 39 192 39 q117 0 166.5 -52t49.5 -171v-385h-72z" unicode="a" glyph-name="a"/>
<glyph horiz-adv-x="630" d="M485 298q0 128 -38 175.5t-118 47.5q-97 0 -146 -71v-309q20 -32 57.5 -52.5t89.5 -20.5q76 0 115.5 50t39.5 180zM581 300q0 -163 -60.5 -237t-177.5 -74q-113 0 -173 74l-3 -1l-15 -62h-63v790l94 6v-175l-1 -80l2 -1q64 67 170 67q110 0 168.5 -72t58.5 -235z" unicode="b" glyph-name="b"/>
<glyph horiz-adv-x="498" d="M451 576l-6 -85q-59 27 -121 27q-96 0 -136.5 -50t-40.5 -166q0 -123 43.5 -176.5t131.5 -53.5q71 0 127 34l7 -78q-60 -41 -154 -41q-127 0 -190 76.5t-63 238.5q0 153 62 228t194 75q79 0 146 -29z" unicode="c" glyph-name="c"/>
<glyph horiz-adv-x="627" d="M447 140v311q-19 31 -57 49.5t-85 18.5q-87 0 -122.5 -51t-35.5 -173q0 -126 34.5 -177t122.5 -51q56 0 91.5 22t51.5 51zM542 0h-73l-12 62l-3 1q-57 -75 -176 -75q-120 0 -174.5 75t-54.5 236q0 308 230 308q104 0 168 -67l2 1l-2 80v168l95 6v-795z" unicode="d" glyph-name="d"/>
<glyph horiz-adv-x="578" d="M144 350h299q-3 174 -147 174q-75 0 -111 -42.5t-41 -131.5zM326 -12q-146 0 -211.5 78.5t-65.5 247.5q0 142 62 217t184 75q111 0 173 -68t62 -207q0 -20 -2 -46h-382q4 -116 48.5 -163.5t142.5 -47.5q84 0 162 38l11 -80q-81 -44 -184 -44z" unicode="e" glyph-name="e"/>
<glyph horiz-adv-x="404" d="M216 0h-95v523h-88v73h88v27q0 79 48.5 126t146.5 47q50 0 88 -12l-6 -65q-30 8 -65 8q-117 0 -117 -105v-26h153v-73h-153v-523z" unicode="f" glyph-name="f"/>
<glyph horiz-adv-x="573" d="M283 531q-64 0 -91 -25t-27 -80q0 -59 30 -81.5t86 -22.5q67 0 93.5 25t26.5 79q0 58 -27.5 81.5t-90.5 23.5zM335 81l-145 13q-49 -34 -49 -83q0 -94 145 -94q95 0 132 23.5t37 67.5q0 33 -25 50t-95 23zM282 252q-48 0 -83 9q-45 -12 -45 -44q0 -36 52 -40l145 -12 q105 -9 148 -43.5t43 -100.5q0 -179 -254 -179q-116 0 -172.5 42t-56.5 115q0 66 58 112q-50 29 -50 83q0 29 19.5 53.5t54.5 37.5l1 2q-71 43 -71 141q0 178 211 178q93 0 147 -37l98 39l21 -48l-72 -50q16 -37 16 -82q0 -88 -48.5 -132t-161.5 -44z" unicode="g" glyph-name="g"/>
<glyph horiz-adv-x="626" d="M552 0h-94v395q0 124 -135 124q-45 0 -83 -19.5t-57 -48.5v-451h-94v789l94 6v-173l-1 -80l2 -1q63 66 167 66q97 0 149 -55t52 -157v-395z" unicode="h" glyph-name="h"/>
<glyph horiz-adv-x="312" d="M217 747q0 -51 -61 -51q-32 0 -46.5 11.5t-14.5 39.5q0 51 61 51t61 -51zM203 0h-95v593l95 5v-598z" unicode="i" glyph-name="i"/>
<glyph horiz-adv-x="310" d="M215 749q0 -52 -61 -52q-62 0 -62 52q0 51 62 51q61 0 61 -51zM202 598v-607q0 -149 -142 -149q-36 0 -69 12l5 70q23 -7 42 -7q70 0 70 77v599z" unicode="j" glyph-name="j"/>
<glyph horiz-adv-x="589" d="M183 795v-434h91l176 235h111l-204 -272l212 -324h-111l-183 281h-92v-281h-94v789z" unicode="k" glyph-name="k"/>
<glyph horiz-adv-x="299" d="M197 0h-95v789l95 6v-795z" unicode="l" glyph-name="l"/>
<glyph horiz-adv-x="924" d="M850 0h-94v396q0 122 -124 122q-51 0 -84.5 -29t-33.5 -83v-406h-94v406q0 58 -32 85.5t-85 27.5q-38 0 -72.5 -18.5t-52.5 -48.5v-452h-95v594l68 5l17 -64h3q57 70 154 70q119 0 161 -91h2q50 92 168 92q89 0 141.5 -53t52.5 -156v-397z" unicode="m" glyph-name="m"/>
<glyph horiz-adv-x="620" d="M546 0h-94v394q0 125 -135 125q-40 0 -79.5 -18t-59.5 -49v-452h-95v594l68 5l16 -63h3q65 71 173 71q96 0 149.5 -54t53.5 -159v-394z" unicode="n" glyph-name="n"/>
<glyph horiz-adv-x="615" d="M147 296q0 -127 36.5 -178t125.5 -51q87 0 123 51t36 178t-36 178t-123 51q-89 0 -125.5 -51t-36.5 -178zM565 296q0 -165 -60.5 -237t-195.5 -72q-136 0 -198 72.5t-62 236.5t62.5 237t197.5 73t195.5 -72.5t60.5 -237.5z" unicode="o" glyph-name="o"/>
<glyph horiz-adv-x="625" d="M478 299q0 124 -37 172t-116 48q-97 0 -145 -70v-306q43 -73 140 -73q77 0 117.5 50t40.5 179zM576 299q0 -310 -233 -310q-108 0 -162 65l-2 -1l1 -81v-120h-97v741l68 5l20 -62q68 70 177 70q115 0 171.5 -70t56.5 -237z" unicode="p" glyph-name="p"/>
<glyph horiz-adv-x="625" d="M445 153v294q-15 30 -54 50.5t-87 20.5q-86 0 -121.5 -48t-35.5 -173q0 -122 37.5 -172.5t119.5 -50.5q59 0 97.5 24.5t43.5 54.5zM540 -148l-95 -1v119l2 81l-2 1q-61 -61 -162 -61q-234 0 -234 306q0 159 59 234t178 75q118 0 177 -76h3l13 66h61v-744z" unicode="q" glyph-name="q"/>
<glyph horiz-adv-x="445" d="M178 0h-95v592l76 5l8 -128h2q28 65 75.5 100.5t107.5 35.5q33 0 59 -8l-6 -96q-24 8 -59 8q-72 0 -120 -56.5t-48 -150.5v-302z" unicode="r" glyph-name="r"/>
<glyph horiz-adv-x="493" d="M449 175q0 -88 -52 -137.5t-158 -49.5q-113 0 -183 50l12 82q69 -52 170 -52q62 0 92.5 26.5t30.5 71.5q0 37 -31.5 60t-76 37t-89.5 31t-76.5 53t-31.5 92q0 77 53.5 122t154.5 45q87 0 161 -34l-8 -80q-76 32 -155 32q-53 0 -84.5 -21.5t-31.5 -58.5q0 -35 31 -56 t76 -34.5t89.5 -30t75.5 -53.5t31 -95z" unicode="s" glyph-name="s"/>
<glyph horiz-adv-x="392" d="M358 522h-147v-366q0 -87 87 -87q31 0 50 8l6 -72q-30 -15 -83 -15q-76 0 -115.5 41.5t-39.5 121.5v369h-83v74h86l18 148l74 8v-156h147v-74z" unicode="t" glyph-name="t"/>
<glyph horiz-adv-x="611" d="M537 596v-400q0 -101 -58 -154t-174 -53q-115 0 -173 53.5t-58 153.5v400h94v-398q0 -122 138 -122q137 0 137 122v398h94z" unicode="u" glyph-name="u"/>
<glyph horiz-adv-x="638" d="M500 596h105l-231 -596h-110l-231 596h105l154 -436l26 -76h3l25 76z" unicode="v" glyph-name="v"/>
<glyph horiz-adv-x="872" d="M388 596h101l109 -444l18 -79h3l15 79l94 444h93l-144 -596h-118l-100 419l-17 80h-3l-18 -80l-103 -419h-116l-151 596h95l99 -441l16 -79h3l17 79z" unicode="w" glyph-name="w"/>
<glyph horiz-adv-x="602" d="M450 0l-153 257l-150 -257h-107l194 302l-190 294h112l147 -248l145 248h108l-185 -291l191 -305h-112z" unicode="x" glyph-name="x"/>
<glyph horiz-adv-x="638" d="M187 -86q36 0 60.5 17t43.5 59l3 10l-261 596h110l170 -433l28 -75h3l22 77l137 431h102l-219 -608q-31 -80 -75 -114t-108 -34q-51 0 -92 19l9 71q33 -16 67 -16z" unicode="y" glyph-name="y"/>
<glyph horiz-adv-x="542" d="M481 527l-264 -379l-47 -63l1 -3h316l-3 -82h-424v68l265 380l47 64l-1 2h-300l3 82h407v-69z" unicode="z" glyph-name="z"/>
<glyph horiz-adv-x="370" d="M253 439q0 -76 -60 -102v-3q60 -28 60 -102q0 -40 -7.5 -102.5t-7.5 -99.5q0 -83 99 -83h30v-75h-25q-102 0 -146.5 36.5t-44.5 108.5q0 41 9 110t9 106q0 32 -20.5 54t-54.5 26v44q34 4 54.5 26t20.5 54q0 38 -9 107t-9 109q0 72 44.5 108.5t146.5 36.5h25v-75h-30 q-99 0 -99 -82q0 -38 7.5 -100t7.5 -102z" unicode="{" glyph-name="braceleft"/>
<glyph horiz-adv-x="281" d="M104 -177v989h74v-989h-74z" unicode="|" glyph-name="bar"/>
<glyph horiz-adv-x="370" d="M117 232q0 75 61 102v3q-61 25 -61 102q0 40 7.5 102t7.5 100q0 82 -99 82h-30v75h25q101 0 145.5 -36.5t44.5 -108.5q0 -40 -9 -109t-9 -107q0 -32 20.5 -53.5t55.5 -26.5v-44q-35 -5 -55.5 -26.5t-20.5 -53.5q0 -37 9 -106t9 -110q0 -72 -44.5 -108.5t-145.5 -36.5h-25 v75h30q99 0 99 83q0 37 -7.5 99.5t-7.5 102.5z" unicode="}" glyph-name="braceright"/>
<glyph horiz-adv-x="649" d="M151 623h-57q17 148 129 148q39 0 105.5 -35t96.5 -35q53 0 73 58h57q-16 -147 -130 -147q-39 0 -104.5 35t-94.5 35q-56 0 -75 -59z" unicode="~" glyph-name="asciitilde"/>
<glyph horiz-adv-x="300" unicode=" " glyph-name="uni00A0"/>
<glyph horiz-adv-x="302" d="M89 612q0 55 61 55t61 -55q0 -57 -61 -57t-61 57zM114 461h76l12 -595h-101z" unicode="¡" glyph-name="exclamdown"/>
<glyph horiz-adv-x="504" d="M454 576l-6 -85q-59 27 -121 27q-96 0 -136.5 -50t-40.5 -166q0 -123 43.5 -176.5t131.5 -53.5q71 0 127 34l7 -78q-49 -33 -125 -40l-6 -132h-76l7 134q-104 13 -155.5 89t-51.5 223q0 144 55 219t172 83l8 127h76l-9 -129q57 -8 100 -26z" unicode="¢" glyph-name="cent"/>
<glyph horiz-adv-x="639" d="M76 335l-4 80h52q-25 81 -25 130q0 95 64.5 155t207.5 60q107 0 189 -37l-14 -90q-74 35 -165 35q-92 0 -135 -36t-43 -97q0 -42 21 -120h266v-80h-247q8 -43 8 -89q0 -112 -75 -161l1 -2q85 17 214 17q96 0 207 -12q0 -1 -2 -46.5t-3 -47.5q-137 14 -248 14 q-145 0 -285 -13l-5 90q47 16 73 58.5t26 97.5q0 44 -9 94h-69z" unicode="£" glyph-name="sterling"/>
<glyph horiz-adv-x="581" d="M175 363q0 -46 33.5 -78.5t80.5 -32.5q48 0 81 32t33 79q0 46 -33 78.5t-81 32.5q-47 0 -80.5 -32.5t-33.5 -78.5zM110 361q0 53 29 100l-65 68l50 55l69 -70q45 29 97 29q53 0 97 -30l70 71l51 -55l-69 -69q29 -47 29 -99t-25 -94l64 -66l-51 -55l-65 66 q-45 -32 -101 -32q-57 0 -102 31l-64 -66l-51 56l63 64q-26 43 -26 96z" unicode="¤" glyph-name="currency"/>
<glyph horiz-adv-x="722" d="M172 341h109l-219 409h117l151 -337l32 -74h3l31 74l150 337h114l-215 -409h109v-59h-135v-51h136v-58h-136v-173h-111v173h-136v58h136v51h-136v59z" unicode="¥" glyph-name="yen"/>
<glyph horiz-adv-x="281" d="M104 -170v443h74v-443h-74zM104 373v439h74v-439h-74z" unicode="¦" glyph-name="brokenbar"/>
<glyph horiz-adv-x="562" d="M430 283q0 15 -5 29t-11.5 24.5t-21 23t-24.5 20.5t-31 20t-32 17.5t-36 18.5t-35 18q-79 -27 -79 -94q0 -13 3 -25t11 -23.5t15 -20.5t21.5 -20t23.5 -17.5t28.5 -17t28.5 -15.5t32 -16.5l31 -15.5q81 26 81 94zM63 350q0 45 23.5 84.5t71.5 63.5q-80 57 -80 126 q0 78 57 120.5t163 42.5q117 0 191 -46l-10 -75q-82 44 -176 44q-62 0 -94.5 -22t-32.5 -60q0 -32 35.5 -58.5t86 -49t101.5 -50t86.5 -73t35.5 -104.5q0 -102 -96 -149q80 -56 80 -125q0 -78 -56.5 -120.5t-162.5 -42.5q-117 0 -190 46l9 75q79 -44 176 -44q62 0 94.5 21.5 t32.5 60.5q0 32 -35.5 58.5t-86 49t-101.5 50t-86.5 73t-35.5 104.5z" unicode="§" glyph-name="section"/>
<glyph d="M327 749q0 -47 -45 -47q-47 0 -47 47q0 49 47 49q45 0 45 -49zM166 749q0 -47 -46 -47q-45 0 -45 47q0 49 45 49q46 0 46 -49z" unicode="¨" glyph-name="dieresis"/>
<glyph horiz-adv-x="905" d="M614 586l-8 -70q-55 31 -122 31q-87 0 -136 -46.5t-49 -121.5q0 -77 50.5 -124t136.5 -47q70 0 131 37q3 -19 10 -68q-76 -60 -166 -60q-113 0 -185 74t-72 188q0 106 69.5 180.5t187.5 74.5q92 0 153 -48zM111 380q0 -139 99 -240t242 -101t243.5 100t100.5 241 q0 138 -100.5 237t-243.5 99q-142 0 -241.5 -99t-99.5 -237zM60 379q0 162 115 277t278 115q162 0 277 -115t115 -277q0 -163 -115 -278t-277 -115q-163 0 -278 115t-115 278z" unicode="©" glyph-name="copyright"/>
<glyph horiz-adv-x="420" d="M283 502v69q-26 13 -71 13q-87 0 -87 -73t73 -73q34 0 59.5 20t25.5 44zM301 375l-7 47l-3 1q-41 -55 -115 -55q-60 0 -94.5 35.5t-34.5 106.5q0 63 39 99t110 36q49 0 87 -16v39q0 44 -21 62t-70 18q-61 0 -112 -25l-7 70q64 28 135 28q85 0 120.5 -38.5t35.5 -127.5 v-280h-63z" unicode="ª" glyph-name="ordfeminine"/>
<glyph horiz-adv-x="625" d="M317 446l-193 -120l193 -120v-78l-290 194v8l290 194v-78zM535 446l-193 -120l193 -120v-78l-290 194v8l290 194v-78z" unicode="«" glyph-name="guillemotleft"/>
<glyph horiz-adv-x="649" d="M459 297h-347v87h426v-241h-79v154z" unicode="¬" glyph-name="logicalnot"/>
<glyph horiz-adv-x="405" d="M70 376h265v-71h-265v71z" unicode="­" glyph-name="uni00AD"/>
<glyph horiz-adv-x="449" d="M273 696q0 28 -36 28h-47v-57h51q32 0 32 29zM314 698q0 -44 -38 -56l44 -83h-46l-38 78h-46v-78h-42v201h88q78 0 78 -62zM75 656q0 -62 44.5 -106t106.5 -44q61 0 104.5 44t43.5 106t-43.5 105.5t-104.5 43.5q-62 0 -106.5 -43.5t-44.5 -105.5zM46 655q0 76 52.5 129 t126.5 53t126 -53t52 -129q0 -74 -52.5 -127t-125.5 -53q-74 0 -126.5 53t-52.5 127z" unicode="®" glyph-name="registered"/>
<glyph d="M343 771v-63h-283v63h283z" unicode="¯" glyph-name="macron"/>
<glyph horiz-adv-x="352" d="M94 686q0 -33 23.5 -56.5t58.5 -23.5t58.5 23t23.5 57t-23.5 57.5t-58.5 23.5t-58.5 -23.5t-23.5 -57.5zM48 686q0 54 37 92.5t91 38.5t91.5 -38t37.5 -93q0 -54 -37.5 -92.5t-91.5 -38.5q-53 0 -90.5 38.5t-37.5 92.5z" unicode="°" glyph-name="degree"/>
<glyph horiz-adv-x="649" d="M544 64h-442v74h442v-74zM547 342h-182v-164h-85v164h-177v84h177v176h85v-176h182v-84z" unicode="±" glyph-name="plusminus"/>
<glyph horiz-adv-x="353" d="M317 783q0 -55 -43.5 -103t-137.5 -118v-3h183l-1 -61h-274v47q16 14 44 39t42.5 38t35.5 33t32 33.5t22.5 30t16.5 30.5t5 28q0 26 -19 42t-58 16q-51 0 -106 -38l-18 58q59 42 137 42q68 0 103.5 -30.5t35.5 -83.5z" unicode="²" glyph-name="twosuperior"/>
<glyph horiz-adv-x="353" d="M319 616q0 -123 -155 -123q-73 0 -130 32l17 56q51 -30 113 -30q43 0 64 18.5t21 49.5q0 32 -26.5 46t-95.5 14v51q64 0 89.5 14.5t25.5 43.5q0 49 -76 49q-64 0 -112 -36l-18 54q54 42 132 42q67 0 104.5 -27t37.5 -77q0 -63 -65 -86v-2q74 -19 74 -89z" unicode="³" glyph-name="threesuperior"/>
<glyph d="M228 805h115l-114 -143h-73z" unicode="´" glyph-name="acute"/>
<glyph horiz-adv-x="620" d="M322 -11q-111 0 -155 85l-2 -1q6 -145 12 -219l-94 -8v750h95v-396q0 -58 39.5 -91.5t102.5 -33.5q59 0 95.5 29t36.5 82v410h94v-594l-67 -6l-14 56h-3q-43 -63 -140 -63z" unicode="µ" glyph-name="uni00B5"/>
<glyph horiz-adv-x="664" d="M273 -152h-84v643q-66 2 -105 37t-39 97q0 56 39 90.5t110 34.5h420l-4 -81h-77v-821h-83v821h-178z" unicode="¶" glyph-name="paragraph"/>
<glyph horiz-adv-x="283" d="M204 345q0 -62 -62 -62q-33 0 -47.5 14.5t-14.5 47.5q0 61 62 61t62 -61z" unicode="·" glyph-name="periodcentered"/>
<glyph d="M126 -191l63 196l64 1l-37 -197h-90z" unicode="¸" glyph-name="cedilla"/>
<glyph horiz-adv-x="271" d="M206 894v-396h-73v226l3 79l-3 1l-83 -52l-6 60l117 82h45z" unicode="¹" glyph-name="onesuperior"/>
<glyph horiz-adv-x="456" d="M131 594q0 -88 22 -121.5t76 -33.5t76 33.5t22 121.5q0 89 -22 122t-76 33t-76 -33t-22 -122zM409 594q0 -122 -42.5 -174t-137.5 -52t-138.5 52.5t-43.5 173.5t43.5 174t138.5 53q96 0 138 -52.5t42 -174.5z" unicode="º" glyph-name="ordmasculine"/>
<glyph horiz-adv-x="625" d="M74 128v78l193 120l-193 120v78l291 -194v-8zM291 128v78l193 120l-193 120v78l291 -194v-8z" unicode="»" glyph-name="guillemotright"/>
<glyph horiz-adv-x="877" d="M656 750h70l-504 -750h-70zM682 140l2 110l3 81l-2 1l-83 -126l-46 -63l1 -3h125zM793 81h-45v-81h-68v81h-202l-5 42l187 271h88v-254h47zM284 751v-395h-73v226l3 79l-3 1l-83 -52l-6 60l117 81h45z" unicode="¼" glyph-name="onequarter"/>
<glyph horiz-adv-x="877" d="M284 751v-395h-73v226l3 79l-3 1l-83 -52l-6 60l117 81h45zM646 750h70l-504 -750h-70zM803 285q0 -55 -43.5 -103t-137.5 -118v-3h183l-1 -61h-274v48q16 14 44 39t42.5 38t35.5 33t32 33.5t22.5 29.5t16.5 30t5 28q0 58 -77 58q-51 0 -106 -37l-18 57q59 42 137 42 q68 0 103.5 -30.5t35.5 -83.5z" unicode="½" glyph-name="onehalf"/>
<glyph horiz-adv-x="877" d="M350 474q0 -123 -155 -123q-76 0 -130 32l17 56q51 -30 113 -30q43 0 64 18.5t21 49.5q0 32 -26.5 46t-95.5 14v51q64 0 89.5 14t25.5 44q0 49 -76 49q-64 0 -112 -36l-18 54q54 42 132 42q67 0 104.5 -27t37.5 -77q0 -63 -66 -86v-2q75 -20 75 -89zM655 750h70 l-504 -750h-70zM672 140l2 110l3 81l-2 1l-83 -126l-46 -63l1 -3h125zM783 81h-45v-81h-68v81h-202l-5 42l187 271h88v-254h47z" unicode="¾" glyph-name="threequarters"/>
<glyph horiz-adv-x="490" d="M206 615q0 56 60 56q32 0 46.5 -13t14.5 -43q0 -56 -61 -56q-60 0 -60 56zM44 78q0 81 46 140.5t136 107.5l4 133h75l6 -169q-88 -53 -129 -97t-41 -102q0 -102 127 -102q100 0 176 68l35 -77q-38 -37 -96.5 -59t-126.5 -22q-105 0 -158.5 46.5t-53.5 132.5z" unicode="¿" glyph-name="questiondown"/>
<glyph horiz-adv-x="711" d="M413 799h-79l-120 117h119zM354 675l-25 -78l-111 -329h271l-109 329l-23 78h-3zM578 0l-60 179h-330l-60 -179h-110l276 750h122l277 -750h-115z" unicode="À" glyph-name="Agrave"/>
<glyph horiz-adv-x="711" d="M372 914h129l-130 -117h-78zM354 675l-25 -78l-111 -329h271l-109 329l-23 78h-3zM578 0l-60 179h-330l-60 -179h-110l276 750h122l277 -750h-115z" unicode="Á" glyph-name="Aacute"/>
<glyph horiz-adv-x="711" d="M304 914h101l116 -117h-90l-76 74l-75 -74h-88zM354 675l-25 -78l-111 -329h271l-109 329l-23 78h-3zM578 0l-60 179h-330l-60 -179h-110l276 750h122l277 -750h-115z" unicode="Â" glyph-name="Acircumflex"/>
<glyph horiz-adv-x="711" d="M250 803l-45 1q5 48 27.5 77t59.5 29q32 0 73.5 -30t57.5 -30q30 0 40 47l43 -1q-4 -48 -27 -77t-60 -29q-31 0 -72 30t-57 30q-28 0 -40 -47zM354 675l-25 -78l-111 -329h271l-109 329l-23 78h-3zM578 0l-60 179h-330l-60 -179h-110l276 750h122l277 -750h-115z" unicode="Ã" glyph-name="Atilde"/>
<glyph horiz-adv-x="711" d="M497 848q0 -46 -46 -46t-46 46t46 46t46 -46zM305 848q0 -46 -46 -46t-46 46t46 46t46 -46zM354 675l-25 -78l-111 -329h271l-109 329l-23 78h-3zM578 0l-60 179h-330l-60 -179h-110l276 750h122l277 -750h-115z" unicode="Ä" glyph-name="Adieresis"/>
<glyph horiz-adv-x="711" d="M306 802q0 -38 48 -38t48 38t-48 38t-48 -38zM354 675l-25 -78l-111 -329h271l-109 329l-23 78h-3zM254 804q0 38 24.5 60.5t74.5 22.5q49 0 74.5 -22.5t25.5 -59.5q0 -47 -33 -68l273 -737h-115l-60 179h-330l-60 -179h-110l270 735q-34 19 -34 69z" unicode="Å" glyph-name="Aring"/>
<glyph horiz-adv-x="1055" d="M516 681l-36 -73l-176 -340h252l-31 331l-6 81zM998 656h-378l23 -223h297v-86h-289l25 -254h333l-3 -93h-424l-17 180h-307l-93 -180h-122l417 750h535z" unicode="Æ" glyph-name="AE"/>
<glyph horiz-adv-x="606" d="M287 -191l57 179q-146 10 -215 105.5t-69 288.5q0 194 79.5 287.5t248.5 93.5q99 0 175 -35l-13 -92q-67 31 -157 31q-121 0 -173 -63.5t-52 -221.5q0 -169 52.5 -235.5t175.5 -66.5q85 0 157 36l13 -86q-69 -36 -156 -43l-33 -178h-90z" unicode="Ç" glyph-name="Ccedilla"/>
<glyph horiz-adv-x="623" d="M394 799h-79l-120 117h119zM199 93h379l-3 -93h-478v750h461l3 -94h-362v-223h310v-86h-310v-254z" unicode="È" glyph-name="Egrave"/>
<glyph horiz-adv-x="623" d="M354 914h129l-130 -117h-78zM199 93h379l-3 -93h-478v750h461l3 -94h-362v-223h310v-86h-310v-254z" unicode="É" glyph-name="Eacute"/>
<glyph horiz-adv-x="623" d="M285 914h101l116 -117h-90l-76 74l-75 -74h-88zM199 93h379l-3 -93h-478v750h461l3 -94h-362v-223h310v-86h-310v-254z" unicode="Ê" glyph-name="Ecircumflex"/>
<glyph horiz-adv-x="623" d="M478 848q0 -46 -46 -46t-46 46t46 46t46 -46zM286 848q0 -46 -46 -46t-46 46t46 46t46 -46zM199 93h379l-3 -93h-478v750h461l3 -94h-362v-223h310v-86h-310v-254z" unicode="Ë" glyph-name="Edieresis"/>
<glyph horiz-adv-x="323" d="M220 799h-79l-120 117h119zM109 0v750h105v-750h-105z" unicode="Ì" glyph-name="Igrave"/>
<glyph horiz-adv-x="323" d="M179 914h129l-130 -117h-78zM109 0v750h105v-750h-105z" unicode="Í" glyph-name="Iacute"/>
<glyph horiz-adv-x="323" d="M111 914h101l116 -117h-90l-76 74l-75 -74h-88zM109 0v750h105v-750h-105z" unicode="Î" glyph-name="Icircumflex"/>
<glyph horiz-adv-x="323" d="M304 848q0 -46 -46 -46t-46 46t46 46t46 -46zM112 848q0 -46 -46 -46t-46 46t46 46t46 -46zM109 0v750h105v-750h-105z" unicode="Ï" glyph-name="Idieresis"/>
<glyph horiz-adv-x="745" d="M577 378q0 158 -49 217t-168 59h-154v-230h106v-65h-106v-264h155q116 0 166 59.5t50 223.5zM684 378q0 -201 -78 -289.5t-243 -88.5h-259v359h-71v65h71v326h257q171 0 247 -87.5t76 -284.5z" unicode="Ð" glyph-name="Eth"/>
<glyph horiz-adv-x="758" d="M280 803l-45 1q5 48 27.5 77t59.5 29q32 0 73.5 -30t57.5 -30q30 0 40 47l43 -1q-4 -48 -27 -77t-60 -29q-31 0 -72 30t-57 30q-28 0 -40 -47zM661 0h-73l-354 516l-44 68l-2 -1l1 -81v-502h-92v750h93l380 -567l2 1l-2 80v486h91v-750z" unicode="Ñ" glyph-name="Ntilde"/>
<glyph horiz-adv-x="741" d="M446 799h-79l-120 117h119zM574 375q0 115 -20.5 178.5t-63 88.5t-119.5 25q-113 0 -158 -61.5t-45 -230.5q0 -168 45 -230.5t158 -62.5t158 62.5t45 230.5zM681 375q0 -208 -71.5 -298.5t-238.5 -90.5q-166 0 -238.5 91.5t-72.5 297.5t72 296.5t239 90.5t238.5 -90 t71.5 -297z" unicode="Ò" glyph-name="Ograve"/>
<glyph horiz-adv-x="741" d="M389 914h129l-130 -117h-78zM574 375q0 115 -20.5 178.5t-63 88.5t-119.5 25q-113 0 -158 -61.5t-45 -230.5q0 -168 45 -230.5t158 -62.5t158 62.5t45 230.5zM681 375q0 -208 -71.5 -298.5t-238.5 -90.5q-166 0 -238.5 91.5t-72.5 297.5t72 296.5t239 90.5t238.5 -90 t71.5 -297z" unicode="Ó" glyph-name="Oacute"/>
<glyph horiz-adv-x="741" d="M321 914h101l116 -117h-90l-76 74l-75 -74h-88zM574 375q0 115 -20.5 178.5t-63 88.5t-119.5 25q-113 0 -158 -61.5t-45 -230.5q0 -168 45 -230.5t158 -62.5t158 62.5t45 230.5zM681 375q0 -208 -71.5 -298.5t-238.5 -90.5q-166 0 -238.5 91.5t-72.5 297.5t72 296.5 t239 90.5t238.5 -90t71.5 -297z" unicode="Ô" glyph-name="Ocircumflex"/>
<glyph horiz-adv-x="741" d="M267 803l-45 1q5 48 27.5 77t59.5 29q32 0 73.5 -30t57.5 -30q30 0 40 47l43 -1q-4 -48 -27 -77t-60 -29q-31 0 -72 30t-57 30q-28 0 -40 -47zM574 375q0 115 -20.5 178.5t-63 88.5t-119.5 25q-113 0 -158 -61.5t-45 -230.5q0 -168 45 -230.5t158 -62.5t158 62.5 t45 230.5zM681 375q0 -208 -71.5 -298.5t-238.5 -90.5q-166 0 -238.5 91.5t-72.5 297.5t72 296.5t239 90.5t238.5 -90t71.5 -297z" unicode="Õ" glyph-name="Otilde"/>
<glyph horiz-adv-x="741" d="M514 848q0 -46 -46 -46t-46 46t46 46t46 -46zM322 848q0 -46 -46 -46t-46 46t46 46t46 -46zM574 375q0 115 -20.5 178.5t-63 88.5t-119.5 25q-113 0 -158 -61.5t-45 -230.5q0 -168 45 -230.5t158 -62.5t158 62.5t45 230.5zM681 375q0 -208 -71.5 -298.5t-238.5 -90.5 q-166 0 -238.5 91.5t-72.5 297.5t72 296.5t239 90.5t238.5 -90t71.5 -297z" unicode="Ö" glyph-name="Odieresis"/>
<glyph horiz-adv-x="597" d="M501 189l-55 -61l-147 146l-147 -146l-56 61l148 145l-148 146l55 61l149 -146l147 146l55 -61l-148 -146z" unicode="×" glyph-name="multiply"/>
<glyph horiz-adv-x="741" d="M574 375q0 105 -15 170l-3 1l-50 -63l-289 -345q45 -56 154 -56q113 0 158 62.5t45 230.5zM167 375q0 -118 20 -181h2l50 62l291 348q-43 63 -159 63q-113 0 -158.5 -61.5t-45.5 -230.5zM100 -15l-50 48l60 78q-50 89 -50 264q0 206 72 296.5t239 90.5q151 0 225 -75 l62 74l50 -48l-70 -87q43 -87 43 -251q0 -208 -71.5 -298.5t-238.5 -90.5q-146 0 -218 68z" unicode="Ø" glyph-name="Oslash"/>
<glyph horiz-adv-x="736" d="M426 799h-79l-120 117h119zM653 750v-480q0 -284 -285 -284q-286 0 -286 284v480h102v-479q0 -97 45 -142.5t139 -45.5t138.5 45.5t44.5 142.5v479h102z" unicode="Ù" glyph-name="Ugrave"/>
<glyph horiz-adv-x="736" d="M385 914h129l-130 -117h-78zM653 750v-480q0 -284 -285 -284q-286 0 -286 284v480h102v-479q0 -97 45 -142.5t139 -45.5t138.5 45.5t44.5 142.5v479h102z" unicode="Ú" glyph-name="Uacute"/>
<glyph horiz-adv-x="736" d="M317 914h101l116 -117h-90l-76 74l-75 -74h-88zM653 750v-480q0 -284 -285 -284q-286 0 -286 284v480h102v-479q0 -97 45 -142.5t139 -45.5t138.5 45.5t44.5 142.5v479h102z" unicode="Û" glyph-name="Ucircumflex"/>
<glyph horiz-adv-x="736" d="M510 848q0 -46 -46 -46t-46 46t46 46t46 -46zM318 848q0 -46 -46 -46t-46 46t46 46t46 -46zM653 750v-480q0 -284 -285 -284q-286 0 -286 284v480h102v-479q0 -97 45 -142.5t139 -45.5t138.5 45.5t44.5 142.5v479h102z" unicode="Ü" glyph-name="Udieresis"/>
<glyph horiz-adv-x="671" d="M355 914h129l-130 -117h-78zM21 750h118l163 -329l35 -73h3l33 73l163 329h113l-260 -496v-254h-104v254z" unicode="Ý" glyph-name="Yacute"/>
<glyph horiz-adv-x="652" d="M503 384q0 81 -40 113.5t-136 32.5h-128v-294h128q95 0 135.5 32t40.5 116zM608 384q0 -119 -65.5 -176t-215.5 -57h-128v-151h-102v750h102v-131h128q150 0 215.5 -56t65.5 -179z" unicode="Þ" glyph-name="Thorn"/>
<glyph horiz-adv-x="634" d="M89 0v503q0 127 60 193.5t173 66.5q79 0 130 -41t51 -102q0 -34 -20.5 -66.5t-44.5 -52.5t-44.5 -41t-20.5 -34q0 -14 22.5 -29t55 -32.5t65 -40t55 -59.5t22.5 -83q0 -88 -60.5 -139.5t-161.5 -51.5q-98 0 -156 39l8 84q50 -36 132 -36q65 0 103.5 26t38.5 75 q0 34 -23 62.5t-56 47.5t-66.5 37t-56.5 40t-23 48q0 25 22 52t48.5 47t48.5 48.5t22 55.5q0 28 -25.5 46t-67.5 18q-137 0 -137 -169v-512h-94z" unicode="ß" glyph-name="germandbls"/>
<glyph horiz-adv-x="573" d="M337 662h-74l-109 143h114zM405 169v103q-37 22 -119 22q-142 0 -142 -111q0 -114 120 -114q55 0 98 31t43 69zM427 0l-9 73l-3 1q-27 -39 -73.5 -61t-103.5 -22q-85 0 -134 47t-49 144q0 86 54.5 133.5t159.5 47.5q72 0 137 -23v59q0 69 -32.5 98t-106.5 29 q-91 0 -167 -36l-9 79q85 39 192 39q117 0 166.5 -52t49.5 -171v-385h-72z" unicode="à" glyph-name="agrave"/>
<glyph horiz-adv-x="573" d="M293 805h115l-114 -143h-73zM405 169v103q-37 22 -119 22q-142 0 -142 -111q0 -114 120 -114q55 0 98 31t43 69zM427 0l-9 73l-3 1q-27 -39 -73.5 -61t-103.5 -22q-85 0 -134 47t-49 144q0 86 54.5 133.5t159.5 47.5q72 0 137 -23v59q0 69 -32.5 98t-106.5 29 q-91 0 -167 -36l-9 79q85 39 192 39q117 0 166.5 -52t49.5 -171v-385h-72z" unicode="á" glyph-name="aacute"/>
<glyph horiz-adv-x="573" d="M240 805h84l105 -143h-74l-72 103l-72 -103h-74zM405 169v103q-37 22 -119 22q-142 0 -142 -111q0 -114 120 -114q55 0 98 31t43 69zM427 0l-9 73l-3 1q-27 -39 -73.5 -61t-103.5 -22q-85 0 -134 47t-49 144q0 86 54.5 133.5t159.5 47.5q72 0 137 -23v59q0 69 -32.5 98 t-106.5 29q-91 0 -167 -36l-9 79q85 39 192 39q117 0 166.5 -52t49.5 -171v-385h-72z" unicode="â" glyph-name="acircumflex"/>
<glyph horiz-adv-x="573" d="M179 682l-46 1q4 52 27.5 84.5t59.5 32.5q33 0 71.5 -33t57.5 -33q30 0 42 55l46 -1q-4 -53 -27.5 -85t-60.5 -32q-32 0 -71 33t-57 33q-30 0 -42 -55zM405 169v103q-37 22 -119 22q-142 0 -142 -111q0 -114 120 -114q55 0 98 31t43 69zM427 0l-9 73l-3 1 q-27 -39 -73.5 -61t-103.5 -22q-85 0 -134 47t-49 144q0 86 54.5 133.5t159.5 47.5q72 0 137 -23v59q0 69 -32.5 98t-106.5 29q-91 0 -167 -36l-9 79q85 39 192 39q117 0 166.5 -52t49.5 -171v-385h-72z" unicode="ã" glyph-name="atilde"/>
<glyph horiz-adv-x="573" d="M414 749q0 -47 -45 -47q-47 0 -47 47q0 49 47 49q45 0 45 -49zM253 749q0 -47 -46 -47q-45 0 -45 47q0 49 45 49q46 0 46 -49zM405 169v103q-37 22 -119 22q-142 0 -142 -111q0 -114 120 -114q55 0 98 31t43 69zM427 0l-9 73l-3 1q-27 -39 -73.5 -61t-103.5 -22 q-85 0 -134 47t-49 144q0 86 54.5 133.5t159.5 47.5q72 0 137 -23v59q0 69 -32.5 98t-106.5 29q-91 0 -167 -36l-9 79q85 39 192 39q117 0 166.5 -52t49.5 -171v-385h-72z" unicode="ä" glyph-name="adieresis"/>
<glyph horiz-adv-x="573" d="M234 744q0 -41 53 -41q54 0 54 41t-54 41q-53 0 -53 -41zM185 744q0 38 25.5 59.5t75.5 21.5q48 0 75 -22.5t27 -58.5q0 -80 -102 -80q-101 0 -101 80zM405 169v103q-37 22 -119 22q-142 0 -142 -111q0 -114 120 -114q55 0 98 31t43 69zM427 0l-9 73l-3 1 q-27 -39 -73.5 -61t-103.5 -22q-85 0 -134 47t-49 144q0 86 54.5 133.5t159.5 47.5q72 0 137 -23v59q0 69 -32.5 98t-106.5 29q-91 0 -167 -36l-9 79q85 39 192 39q117 0 166.5 -52t49.5 -171v-385h-72z" unicode="å" glyph-name="aring"/>
<glyph horiz-adv-x="924" d="M492 350h298q-3 174 -147 174q-74 0 -110 -42.5t-41 -131.5zM405 186v84q-37 22 -119 22q-143 0 -143 -111q0 -114 121 -114q61 0 101 33.5t40 85.5zM283 606q138 0 179 -85q63 85 186 85q105 0 166.5 -68.5t61.5 -206.5q0 -20 -2 -46h-381q4 -116 49 -163.5t142 -47.5 q82 0 162 39l11 -81q-81 -44 -185 -44q-168 0 -224 111h-3q-26 -52 -78 -81t-120 -29q-192 0 -192 191q0 85 54.5 132.5t159.5 47.5q75 0 137 -25v62q0 69 -32.5 98t-106.5 29q-91 0 -167 -36l-9 79q87 39 192 39z" unicode="æ" glyph-name="ae"/>
<glyph horiz-adv-x="498" d="M205 -191l58 180q-214 21 -214 313q0 153 62 228t194 75q79 0 146 -29l-6 -85q-59 27 -121 27q-96 0 -136.5 -50t-40.5 -166q0 -123 43.5 -176.5t131.5 -53.5q71 0 127 34l7 -78q-48 -34 -128 -40l-33 -179h-90z" unicode="ç" glyph-name="ccedilla"/>
<glyph horiz-adv-x="578" d="M349 662h-74l-109 143h114zM144 350h299q-3 174 -147 174q-75 0 -111 -42.5t-41 -131.5zM326 -12q-146 0 -211.5 78.5t-65.5 247.5q0 142 62 217t184 75q111 0 173 -68t62 -207q0 -20 -2 -46h-382q4 -116 48.5 -163.5t142.5 -47.5q84 0 162 38l11 -80q-81 -44 -184 -44z " unicode="è" glyph-name="egrave"/>
<glyph horiz-adv-x="578" d="M306 805h115l-114 -143h-73zM144 350h299q-3 174 -147 174q-75 0 -111 -42.5t-41 -131.5zM326 -12q-146 0 -211.5 78.5t-65.5 247.5q0 142 62 217t184 75q111 0 173 -68t62 -207q0 -20 -2 -46h-382q4 -116 48.5 -163.5t142.5 -47.5q84 0 162 38l11 -80q-81 -44 -184 -44z " unicode="é" glyph-name="eacute"/>
<glyph horiz-adv-x="578" d="M253 805h84l105 -143h-74l-72 103l-72 -103h-74zM144 350h299q-3 174 -147 174q-75 0 -111 -42.5t-41 -131.5zM326 -12q-146 0 -211.5 78.5t-65.5 247.5q0 142 62 217t184 75q111 0 173 -68t62 -207q0 -20 -2 -46h-382q4 -116 48.5 -163.5t142.5 -47.5q84 0 162 38 l11 -80q-81 -44 -184 -44z" unicode="ê" glyph-name="ecircumflex"/>
<glyph horiz-adv-x="578" d="M415 749q0 -47 -45 -47q-47 0 -47 47q0 49 47 49q45 0 45 -49zM254 749q0 -47 -46 -47q-45 0 -45 47q0 49 45 49q46 0 46 -49zM144 350h299q-3 174 -147 174q-75 0 -111 -42.5t-41 -131.5zM326 -12q-146 0 -211.5 78.5t-65.5 247.5q0 142 62 217t184 75q111 0 173 -68 t62 -207q0 -20 -2 -46h-382q4 -116 48.5 -163.5t142.5 -47.5q84 0 162 38l11 -80q-81 -44 -184 -44z" unicode="ë" glyph-name="edieresis"/>
<glyph horiz-adv-x="312" d="M209 662h-74l-109 143h114zM203 0h-95v593l95 5v-598z" unicode="ì" glyph-name="igrave"/>
<glyph horiz-adv-x="312" d="M166 805h115l-114 -143h-73zM203 0h-95v593l95 5v-598z" unicode="í" glyph-name="iacute"/>
<glyph horiz-adv-x="312" d="M113 805h84l105 -143h-74l-72 103l-72 -103h-74zM203 0h-95v593l95 5v-598z" unicode="î" glyph-name="icircumflex"/>
<glyph horiz-adv-x="312" d="M286 749q0 -47 -45 -47q-47 0 -47 47q0 49 47 49q45 0 45 -49zM125 749q0 -47 -46 -47q-45 0 -45 47q0 49 45 49q46 0 46 -49zM203 0h-95v593l95 5v-598z" unicode="ï" glyph-name="idieresis"/>
<glyph horiz-adv-x="616" d="M146 283q0 -121 39 -166.5t122 -45.5q82 0 122 57.5t40 184.5q0 169 -162 169q-87 0 -124 -45t-37 -154zM458 762l-76 -55q82 -77 133 -176t51 -199q0 -183 -62.5 -263t-196.5 -80q-129 0 -193.5 67t-64.5 230q0 143 56.5 211t179.5 68q91 0 150 -44l2 2q-41 74 -115 140 l-88 -64l-36 37l81 61q-53 37 -95 60l63 48q48 -25 94 -62l81 61z" unicode="ð" glyph-name="eth"/>
<glyph horiz-adv-x="620" d="M210 682l-46 1q4 52 27.5 84.5t59.5 32.5q33 0 71.5 -33t57.5 -33q30 0 42 55l46 -1q-4 -53 -27.5 -85t-60.5 -32q-32 0 -71 33t-57 33q-30 0 -42 -55zM546 0h-94v394q0 125 -135 125q-40 0 -79.5 -18t-59.5 -49v-452h-95v594l68 5l16 -63h3q65 71 173 71q96 0 149.5 -54 t53.5 -159v-394z" unicode="ñ" glyph-name="ntilde"/>
<glyph horiz-adv-x="615" d="M362 662h-74l-109 143h114zM147 296q0 -127 36.5 -178t125.5 -51q87 0 123 51t36 178t-36 178t-123 51q-89 0 -125.5 -51t-36.5 -178zM565 296q0 -165 -60.5 -237t-195.5 -72q-136 0 -198 72.5t-62 236.5t62.5 237t197.5 73t195.5 -72.5t60.5 -237.5z" unicode="ò" glyph-name="ograve"/>
<glyph horiz-adv-x="615" d="M319 805h115l-114 -143h-73zM147 296q0 -127 36.5 -178t125.5 -51q87 0 123 51t36 178t-36 178t-123 51q-89 0 -125.5 -51t-36.5 -178zM565 296q0 -165 -60.5 -237t-195.5 -72q-136 0 -198 72.5t-62 236.5t62.5 237t197.5 73t195.5 -72.5t60.5 -237.5z" unicode="ó" glyph-name="oacute"/>
<glyph horiz-adv-x="615" d="M266 805h84l105 -143h-74l-72 103l-72 -103h-74zM147 296q0 -127 36.5 -178t125.5 -51q87 0 123 51t36 178t-36 178t-123 51q-89 0 -125.5 -51t-36.5 -178zM565 296q0 -165 -60.5 -237t-195.5 -72q-136 0 -198 72.5t-62 236.5t62.5 237t197.5 73t195.5 -72.5t60.5 -237.5 z" unicode="ô" glyph-name="ocircumflex"/>
<glyph horiz-adv-x="615" d="M205 682l-46 1q4 52 27.5 84.5t59.5 32.5q33 0 71.5 -33t57.5 -33q30 0 42 55l46 -1q-4 -53 -27.5 -85t-60.5 -32q-32 0 -71 33t-57 33q-30 0 -42 -55zM147 296q0 -127 36.5 -178t125.5 -51q87 0 123 51t36 178t-36 178t-123 51q-89 0 -125.5 -51t-36.5 -178zM565 296 q0 -165 -60.5 -237t-195.5 -72q-136 0 -198 72.5t-62 236.5t62.5 237t197.5 73t195.5 -72.5t60.5 -237.5z" unicode="õ" glyph-name="otilde"/>
<glyph horiz-adv-x="615" d="M433 749q0 -47 -45 -47q-47 0 -47 47q0 49 47 49q45 0 45 -49zM272 749q0 -47 -46 -47q-45 0 -45 47q0 49 45 49q46 0 46 -49zM147 296q0 -127 36.5 -178t125.5 -51q87 0 123 51t36 178t-36 178t-123 51q-89 0 -125.5 -51t-36.5 -178zM565 296q0 -165 -60.5 -237 t-195.5 -72q-136 0 -198 72.5t-62 236.5t62.5 237t197.5 73t195.5 -72.5t60.5 -237.5z" unicode="ö" glyph-name="odieresis"/>
<glyph horiz-adv-x="597" d="M532 294h-467v90h467v-90zM362 173q0 -54 -64 -54q-33 0 -48.5 12t-15.5 42q0 54 64 54t64 -54zM362 504q0 -54 -64 -54q-32 0 -48 12t-16 42q0 55 64 55t64 -55z" unicode="÷" glyph-name="divide"/>
<glyph horiz-adv-x="615" d="M146 296q0 -66 10 -118l2 -1l52 61l216 242q-35 45 -118 45q-88 0 -125 -51t-37 -178zM467 296q0 80 -15 138l-3 1l-52 -62l-220 -247q37 -59 131 -59q87 0 123 51t36 178zM81 -5l-41 40l47 59q-38 72 -38 202q0 164 62 237t197 73q110 0 171 -49l39 50l41 -39l-41 -54 q47 -73 47 -218q0 -165 -60.5 -237t-196.5 -72q-125 0 -185 59z" unicode="ø" glyph-name="oslash"/>
<glyph horiz-adv-x="611" d="M361 662h-74l-109 143h114zM537 596v-400q0 -101 -58 -154t-174 -53q-115 0 -173 53.5t-58 153.5v400h94v-398q0 -122 138 -122q137 0 137 122v398h94z" unicode="ù" glyph-name="ugrave"/>
<glyph horiz-adv-x="611" d="M318 805h115l-114 -143h-73zM537 596v-400q0 -101 -58 -154t-174 -53q-115 0 -173 53.5t-58 153.5v400h94v-398q0 -122 138 -122q137 0 137 122v398h94z" unicode="ú" glyph-name="uacute"/>
<glyph horiz-adv-x="611" d="M264 805h84l105 -143h-74l-72 103l-72 -103h-74zM537 596v-400q0 -101 -58 -154t-174 -53q-115 0 -173 53.5t-58 153.5v400h94v-398q0 -122 138 -122q137 0 137 122v398h94z" unicode="û" glyph-name="ucircumflex"/>
<glyph horiz-adv-x="611" d="M432 749q0 -47 -45 -47q-47 0 -47 47q0 49 47 49q45 0 45 -49zM271 749q0 -47 -46 -47q-45 0 -45 47q0 49 45 49q46 0 46 -49zM537 596v-400q0 -101 -58 -154t-174 -53q-115 0 -173 53.5t-58 153.5v400h94v-398q0 -122 138 -122q137 0 137 122v398h94z" unicode="ü" glyph-name="udieresis"/>
<glyph horiz-adv-x="638" d="M328 805h115l-114 -143h-73zM187 -86q36 0 60.5 17t43.5 59l3 10l-261 596h110l170 -433l28 -75h3l22 77l137 431h102l-219 -608q-31 -80 -75 -114t-108 -34q-51 0 -92 19l9 71q33 -16 67 -16z" unicode="ý" glyph-name="yacute"/>
<glyph horiz-adv-x="630" d="M482 299q0 124 -36.5 172t-114.5 48q-96 0 -146 -70v-306q45 -73 140 -73q77 0 117 50t40 179zM581 299q0 -310 -231 -310q-105 0 -164 63l-2 -1l1 -81v-118h-96v938l96 5v-177l-2 -80l3 -2q67 70 174 70q110 0 165.5 -70t55.5 -237z" unicode="þ" glyph-name="thorn"/>
<glyph horiz-adv-x="638" d="M446 749q0 -47 -45 -47q-47 0 -47 47q0 49 47 49q45 0 45 -49zM285 749q0 -47 -46 -47q-45 0 -45 47q0 49 45 49q46 0 46 -49zM187 -86q36 0 60.5 17t43.5 59l3 10l-261 596h110l170 -433l28 -75h3l22 77l137 431h102l-219 -608q-31 -80 -75 -114t-108 -34q-51 0 -92 19 l9 71q33 -16 67 -16z" unicode="ÿ" glyph-name="ydieresis"/>
<glyph horiz-adv-x="312" d="M203 0h-95v593l95 5v-598z" unicode="ı" glyph-name="dotlessi"/>
<glyph horiz-adv-x="856" d="M759 750v-497q0 -135 -68.5 -201t-196.5 -66q-90 0 -151 41l8 91q51 -38 130 -38q174 0 174 174v496h104zM110 0v750h105v-750h-105z" unicode="Ĳ" glyph-name="IJ"/>
<glyph horiz-adv-x="588" d="M507 749q0 -52 -61 -52q-62 0 -62 52q0 51 62 51q61 0 61 -51zM494 598v-607q0 -149 -142 -149q-36 0 -69 12l5 70q23 -7 42 -7q70 0 70 77v599zM216 747q0 -51 -61 -51q-32 0 -46.5 11.5t-14.5 39.5q0 51 61 51t61 -51zM202 0h-95v593l95 5v-598z" unicode="ĳ" glyph-name="ij"/>
<glyph horiz-adv-x="600" d="M226 96h349l-3 -96h-449v296l-77 -36l-7 85l84 39v366h103v-322l209 99l10 -88l-219 -101v-242z" unicode="Ł" glyph-name="Lslash"/>
<glyph horiz-adv-x="358" d="M44 361l-2 84l86 46v298l95 6v-263l93 50l1 -82l-94 -51v-449h-95v407z" unicode="ł" glyph-name="lslash"/>
<glyph horiz-adv-x="1096" d="M571 375q0 170 -43.5 231t-156.5 61t-158 -61.5t-45 -230.5t45 -231.5t158 -62.5q112 0 156 62.5t44 231.5zM1047 0h-468v91l-3 1q-62 -106 -223 -106q-153 0 -223 92t-70 297t69.5 296t224.5 91q161 0 222 -97h3v85h451l3 -94h-361v-223h309v-86h-309v-254h378z" unicode="Œ" glyph-name="OE"/>
<glyph horiz-adv-x="1001" d="M569 350h298q-1 90 -40.5 132t-106.5 42q-74 0 -110 -42.5t-41 -131.5zM153 296q0 -127 37.5 -178t125.5 -51q87 0 122.5 51t35.5 178t-35.5 178t-123.5 51t-125 -51t-37 -178zM752 -12q-90 0 -144 28.5t-81 89.5h-3q-49 -119 -215 -119q-131 0 -192 72.5t-61 236.5 t61 237t192 73q162 0 212 -108h3q52 108 198 108q108 0 170 -68.5t62 -206.5q0 -27 -3 -46h-379q3 -116 47.5 -163.5t141.5 -47.5q84 0 162 39l12 -81q-83 -44 -183 -44z" unicode="œ" glyph-name="oe"/>
<glyph horiz-adv-x="568" d="M357 797h-101l-114 117h90l75 -77l76 77h88zM527 214q0 -107 -66.5 -167.5t-189.5 -60.5q-122 0 -220 57l16 93q94 -57 203 -57q78 0 118 33.5t40 94.5q0 46 -38 76t-92.5 48t-109.5 40t-93 67t-38 114q0 94 62 152t185 58q115 0 198 -40l-14 -89q-92 36 -179 36 q-79 0 -116 -31t-37 -80q0 -44 38 -72.5t92.5 -46t109.5 -39.5t93 -68.5t38 -117.5z" unicode="Š" glyph-name="Scaron"/>
<glyph horiz-adv-x="493" d="M299 662h-85l-102 143h74l71 -104l71 104h76zM449 175q0 -88 -52 -137.5t-158 -49.5q-113 0 -183 50l12 82q69 -52 170 -52q62 0 92.5 26.5t30.5 71.5q0 37 -31.5 60t-76 37t-89.5 31t-76.5 53t-31.5 92q0 77 53.5 122t154.5 45q87 0 161 -34l-8 -80q-76 32 -155 32 q-53 0 -84.5 -21.5t-31.5 -58.5q0 -35 31 -56t76 -34.5t89.5 -30t75.5 -53.5t31 -95z" unicode="š" glyph-name="scaron"/>
<glyph horiz-adv-x="671" d="M480 848q0 -46 -46 -46t-46 46t46 46t46 -46zM288 848q0 -46 -46 -46t-46 46t46 46t46 -46zM21 750h118l163 -329l35 -73h3l33 73l163 329h113l-260 -496v-254h-104v254z" unicode="Ÿ" glyph-name="Ydieresis"/>
<glyph horiz-adv-x="617" d="M362 797h-101l-114 117h90l75 -77l76 77h88zM562 0h-514v69l346 518l45 65l-1 2h-379l4 96h500v-78l-342 -511l-45 -63l1 -3h388z" unicode="Ž" glyph-name="Zcaron"/>
<glyph horiz-adv-x="542" d="M320 662h-85l-102 143h74l71 -104l71 104h76zM481 527l-264 -379l-47 -63l1 -3h316l-3 -82h-424v68l265 380l47 64l-1 2h-300l3 82h407v-69z" unicode="ž" glyph-name="zcaron"/>
<glyph horiz-adv-x="409" d="M89 -148h-94l145 668h-63l15 76h63l10 50q14 64 60.5 101t123.5 37q45 0 82 -13l-20 -65q-29 9 -57 9q-78 0 -95 -70l-9 -49h142l-16 -76h-142z" unicode="ƒ" glyph-name="florin"/>
<glyph d="M157 805h84l105 -143h-74l-72 103l-72 -103h-74z" unicode="ˆ" glyph-name="circumflex"/>
<glyph d="M242 662h-85l-102 143h74l71 -104l71 104h76z" unicode="ˇ" glyph-name="caron"/>
<glyph d="M273 805h68q0 -151 -141 -151q-142 0 -142 151h66q0 -48 20.5 -72.5t55.5 -24.5q34 0 54 24.5t19 72.5z" unicode="˘" glyph-name="breve"/>
<glyph d="M261 749q0 -52 -62 -52t-62 52q0 51 62 51t62 -51z" unicode="˙" glyph-name="dotaccent"/>
<glyph d="M148 744q0 -41 53 -41q54 0 54 41t-54 41q-53 0 -53 -41zM99 744q0 38 25.5 59.5t75.5 21.5q48 0 75 -22.5t27 -58.5q0 -80 -102 -80q-101 0 -101 80z" unicode="˚" glyph-name="ring"/>
<glyph d="M248 -182q-54 0 -79.5 23t-25.5 60q0 39 25.5 69t70.5 46l39 -16q-62 -25 -62 -77q0 -44 57 -44q32 0 60 14l8 -52q-43 -23 -93 -23z" unicode="˛" glyph-name="ogonek"/>
<glyph d="M100 682l-46 1q4 52 27.5 84.5t59.5 32.5q33 0 71.5 -33t57.5 -33q30 0 42 55l46 -1q-4 -53 -27.5 -85t-60.5 -32q-32 0 -71 33t-57 33q-30 0 -42 -55z" unicode="˜" glyph-name="tilde"/>
<glyph d="M325 805h104l-114 -143h-72zM166 805h102l-108 -143h-63z" unicode="˝" glyph-name="hungarumlaut"/>
<glyph horiz-adv-x="755" d="M376 636l-28 -77l-183 -473h421l-180 473l-27 77h-3zM411 754l299 -754h-667l299 754h69z" unicode="Δ" glyph-name="Delta"/>
<glyph horiz-adv-x="742" d="M371 761q304 0 304 -329q0 -104 -45 -193t-134 -151v-3h185v-85h-271v121q158 123 158 306q0 126 -47.5 183.5t-149.5 57.5t-149.5 -57.5t-47.5 -183.5q0 -183 158 -306v-121h-271v85h184l1 3q-179 124 -179 344q0 329 304 329z" unicode="Ω" glyph-name="Omega"/>
<glyph horiz-adv-x="620" d="M322 -11q-111 0 -155 85l-2 -1q6 -145 12 -219l-94 -8v750h95v-396q0 -58 39.5 -91.5t102.5 -33.5q59 0 95.5 29t36.5 82v410h94v-594l-67 -6l-14 56h-3q-43 -63 -140 -63z" unicode="μ" glyph-name="mu"/>
<glyph horiz-adv-x="675" d="M441 149v362h-206v-511h-94v511q-63 -3 -91 -24l-26 75q42 34 154 34h450v-84h-94v-363q0 -45 15 -62t56 -17v-74q-97 0 -130.5 33t-33.5 120z" unicode="π" glyph-name="pi"/>
<glyph horiz-adv-x="532" d="M70 376h392v-71h-392v71z" unicode="–" glyph-name="endash"/>
<glyph horiz-adv-x="708" d="M70 376h568v-71h-568v71z" unicode="—" glyph-name="emdash"/>
<glyph horiz-adv-x="233" d="M118 571q-62 0 -62 66q0 28 23 86.5t49 99.5l35 -9l-26 -123q16 -5 28 -21t12 -35q0 -64 -59 -64z" unicode="‘" glyph-name="quoteleft"/>
<glyph horiz-adv-x="233" d="M116 792q62 0 62 -66q0 -28 -23.5 -86.5t-49.5 -99.5l-34 9l26 123q-17 5 -29 21t-12 35q0 64 60 64z" unicode="’" glyph-name="quoteright"/>
<glyph horiz-adv-x="233" d="M116 110q62 0 62 -66q0 -28 -23.5 -86.5t-49.5 -99.5l-34 9l26 123q-17 5 -29 21t-12 35q0 64 60 64z" unicode="‚" glyph-name="quotesinglbase"/>
<glyph horiz-adv-x="417" d="M301 571q-62 0 -62 66q1 28 24 87t49 99l34 -9l-26 -123q17 -5 29 -21t12 -35q0 -64 -60 -64zM118 571q-62 0 -62 66q0 28 23 86.5t49 99.5l35 -9l-26 -123q16 -5 28 -21t12 -35q0 -64 -59 -64z" unicode="“" glyph-name="quotedblleft"/>
<glyph horiz-adv-x="416" d="M299 791q62 0 62 -66q0 -28 -23.5 -86.5t-49.5 -99.5l-34 9l26 123q-17 5 -29 21t-12 35q0 64 60 64zM116 791q62 0 62 -66q0 -28 -23.5 -86.5t-49.5 -99.5l-34 9l26 123q-17 5 -29 21t-12 35q0 64 60 64z" unicode="”" glyph-name="quotedblright"/>
<glyph horiz-adv-x="417" d="M116 110q62 0 62 -66q0 -28 -23.5 -86.5t-49.5 -99.5l-34 9l26 123q-17 5 -29 21t-12 35q0 64 60 64zM299 110q62 0 62 -66q0 -28 -23.5 -86.5t-49.5 -99.5l-34 9l26 123q-17 5 -29 21t-12 35q0 64 60 64z" unicode="„" glyph-name="quotedblbase"/>
<glyph horiz-adv-x="501" d="M45 601l164 -7l-8 199h93l-6 -199l168 7v-91l-168 6l6 -660h-93l8 660l-164 -6v91z" unicode="†" glyph-name="dagger"/>
<glyph horiz-adv-x="501" d="M456 142v-91l-169 7l7 -203h-93l8 203l-164 -7v90l165 -6l-1 381l-164 -6v91l164 -7l-8 199h93l-6 -199l168 7v-91l-168 6v-381z" unicode="‡" glyph-name="daggerdbl"/>
<glyph horiz-adv-x="406" d="M66 322q0 137 135 137q134 0 134 -137q0 -138 -134 -138q-135 0 -135 138z" unicode="•" glyph-name="bullet"/>
<glyph horiz-adv-x="654" d="M188 51q0 -62 -62 -62q-33 0 -47.5 14.5t-14.5 47.5q0 61 62 61t62 -61zM394 51q0 -62 -62 -62q-33 0 -47.5 14.5t-14.5 47.5q0 61 62 61t62 -61zM590 51q0 -62 -62 -62q-33 0 -47.5 14.5t-14.5 47.5q0 61 62 61t62 -61z" unicode="…" glyph-name="ellipsis"/>
<glyph horiz-adv-x="1028" d="M916 166q0 64 -18.5 88t-59.5 24q-42 0 -60.5 -24t-18.5 -88q0 -63 18.5 -87t59.5 -24q42 0 60.5 24t18.5 87zM981 166q0 -90 -35.5 -132.5t-108.5 -42.5q-74 0 -108.5 42t-34.5 133q0 93 33.5 135t110.5 42q72 0 107.5 -41.5t35.5 -135.5zM599 166q0 64 -18.5 88 t-59.5 24q-42 0 -60.5 -24t-18.5 -88q0 -63 18.5 -87t59.5 -24q42 0 60.5 24t18.5 87zM663 166q0 -90 -35.5 -132.5t-107.5 -42.5q-74 0 -108.5 42t-34.5 133q0 93 33.5 135t110.5 42q72 0 107 -41.5t35 -135.5zM515 734l58 -43l-389 -676l-59 43zM269 589q0 63 -18.5 87.5 t-59.5 24.5q-42 0 -60.5 -24t-18.5 -88t18.5 -88t60.5 -24t60 24t18 88zM334 588q0 -175 -143 -175q-74 0 -108.5 42t-34.5 133q0 92 33.5 133t109.5 41q73 0 108 -40.5t35 -133.5z" unicode="‰" glyph-name="perthousand"/>
<glyph horiz-adv-x="405" d="M336 446l-193 -120l193 -120v-78l-290 194v8l290 194v-78z" unicode="‹" glyph-name="guilsinglleft"/>
<glyph horiz-adv-x="405" d="M69 128v78l193 120l-193 120v78l291 -194v-8z" unicode="›" glyph-name="guilsinglright"/>
<glyph horiz-adv-x="288" d="M378 750h70l-504 -750h-70z" unicode="⁄" glyph-name="fraction"/>
<glyph horiz-adv-x="368" d="M265 695q0 83 -18.5 112.5t-61.5 29.5q-45 0 -64 -29.5t-19 -112.5t19 -113t64 -30q43 0 61.5 30t18.5 113zM337 694q0 -107 -36 -154.5t-117 -47.5t-117 47.5t-36 154.5q0 110 36 156.5t118 46.5q81 0 116.5 -47t35.5 -156z" unicode="⁰" glyph-name="uni2070"/>
<glyph horiz-adv-x="368" d="M238 638l2 109l3 81l-2 1l-41 -64l-41 -61l-46 -63l1 -3h124zM349 579h-45v-81h-68v81h-202l-5 41l187 272h88v-254h47z" unicode="⁴" glyph-name="uni2074"/>
<glyph horiz-adv-x="368" d="M331 633q0 -140 -149 -140q-76 0 -127 29l12 58q56 -28 110 -28q44 0 63.5 18.5t19.5 57.5q0 62 -80 62q-50 0 -93 -16l-29 24l18 194h234l2 -62h-180l-7 -91q41 9 71 9q135 0 135 -115z" unicode="⁵" glyph-name="uni2075"/>
<glyph horiz-adv-x="368" d="M263 634q0 33 -17 48t-55 15q-55 0 -81 -32q1 -61 19.5 -87t60.5 -26q73 0 73 82zM335 633q0 -69 -37.5 -104.5t-108.5 -35.5q-76 0 -114.5 45t-38.5 145q0 214 179 214q53 0 97 -16l-5 -59q-38 14 -83 14q-55 0 -83 -27t-34 -83l2 -2q39 27 94 27q132 0 132 -118z" unicode="⁶" glyph-name="uni2076"/>
<glyph horiz-adv-x="368" d="M335 892v-61l-167 -333h-85l174 327h-221l3 67h296z" unicode="⁷" glyph-name="uni2077"/>
<glyph horiz-adv-x="368" d="M117 791q0 -19 15 -32t29 -18t47 -15q46 25 46 61q0 55 -69 55q-68 0 -68 -51zM264 605q0 8 -1.5 14.5t-6 11.5t-8 9.5t-11.5 8.5t-13 7t-15 6.5t-16 5.5t-18 5.5t-17 5.5q-55 -27 -55 -70q0 -31 19 -45.5t64 -14.5q78 0 78 56zM32 610q0 61 68 94v3q-52 25 -52 87 q0 103 137 103q135 0 135 -103q0 -56 -53 -87v-2q69 -27 69 -95q0 -117 -151 -117q-153 0 -153 117z" unicode="⁸" glyph-name="uni2078"/>
<glyph horiz-adv-x="368" d="M259 736q0 56 -20 79.5t-63 23.5q-35 0 -54 -17t-19 -48q0 -69 78 -69q55 0 78 31zM330 712q0 -114 -41.5 -166.5t-127.5 -52.5q-54 0 -101 18l10 58q41 -17 87 -17q53 0 79.5 31.5t30.5 100.5l-2 1q-36 -33 -92 -33q-138 0 -138 119q0 58 36 92.5t106 34.5 q153 0 153 -186z" unicode="⁹" glyph-name="uni2079"/>
<glyph horiz-adv-x="370" d="M326 667h-114v-112h-57v112h-111v62h111v113h57v-113h114v-62z" unicode="⁺" glyph-name="uni207A"/>
<glyph horiz-adv-x="370" d="M322 672h-274v59h274v-59z" unicode="⁻" glyph-name="uni207B"/>
<glyph horiz-adv-x="370" d="M322 615h-274v53h274v-53zM322 732h-274v53h274v-53z" unicode="⁼" glyph-name="uni207C"/>
<glyph horiz-adv-x="210" d="M148 923l50 -4q-71 -103 -71 -239q0 -135 71 -239l-50 -4q-87 93 -87 243q0 145 87 243z" unicode="⁽" glyph-name="uni207D"/>
<glyph horiz-adv-x="210" d="M11 919l51 4q86 -95 86 -243q0 -151 -86 -243l-51 4q71 107 71 239q0 133 -71 239z" unicode="⁾" glyph-name="uni207E"/>
<glyph horiz-adv-x="368" d="M265 50q0 83 -18.5 112.5t-61.5 29.5q-45 0 -64 -29.5t-19 -112.5t19 -113t64 -30q43 0 61.5 30t18.5 113zM337 49q0 -107 -36 -154.5t-117 -47.5t-117 47.5t-36 154.5q0 110 36 156.5t118 46.5q81 0 116.5 -47t35.5 -156z" unicode="₀" glyph-name="uni2080"/>
<glyph horiz-adv-x="271" d="M206 249v-396h-73v226l3 79l-3 1l-83 -52l-6 60l117 82h45z" unicode="₁" glyph-name="uni2081"/>
<glyph horiz-adv-x="353" d="M317 138q0 -55 -43.5 -103t-137.5 -118v-3h183l-1 -61h-274v47q16 14 44 39t42.5 38t35.5 33t32 33.5t22.5 30t16.5 30.5t5 28q0 26 -19 42t-58 16q-51 0 -106 -38l-18 58q59 42 137 42q68 0 103.5 -30.5t35.5 -83.5z" unicode="₂" glyph-name="uni2082"/>
<glyph horiz-adv-x="353" d="M319 -29q0 -123 -155 -123q-73 0 -130 32l17 56q51 -30 113 -30q43 0 64 18.5t21 49.5q0 32 -26.5 46t-95.5 14v51q64 0 89.5 14.5t25.5 43.5q0 49 -76 49q-64 0 -112 -36l-18 54q54 42 132 42q67 0 104.5 -27t37.5 -77q0 -63 -66 -86v-2q75 -20 75 -89z" unicode="₃" glyph-name="uni2083"/>
<glyph horiz-adv-x="368" d="M238 -7l2 109l3 81l-2 1l-41 -64l-41 -61l-46 -63l1 -3h124zM349 -66h-45v-81h-68v81h-202l-5 41l187 272h88v-254h47z" unicode="₄" glyph-name="uni2084"/>
<glyph horiz-adv-x="368" d="M331 -12q0 -140 -149 -140q-76 0 -127 29l12 58q53 -28 110 -28q44 0 63.5 18.5t19.5 57.5q0 62 -80 62q-50 0 -93 -16l-29 24l18 194h234l2 -62h-180l-7 -91q41 9 71 9q135 0 135 -115z" unicode="₅" glyph-name="uni2085"/>
<glyph horiz-adv-x="368" d="M263 -11q0 33 -17 48t-55 15q-55 0 -81 -32q1 -61 19.5 -87t60.5 -26q73 0 73 82zM335 -12q0 -69 -37.5 -104.5t-108.5 -35.5q-76 0 -114.5 45t-38.5 145q0 214 179 214q53 0 97 -16l-5 -59q-35 13 -83 13q-55 0 -83 -26.5t-34 -83.5l2 -2q40 28 94 28q132 0 132 -118z " unicode="₆" glyph-name="uni2086"/>
<glyph horiz-adv-x="368" d="M335 247v-62l-167 -332h-85l174 327h-221l3 67h296z" unicode="₇" glyph-name="uni2087"/>
<glyph horiz-adv-x="368" d="M117 146q0 -19 15 -32t29 -18t47 -15q46 25 46 61q0 55 -69 55q-68 0 -68 -51zM264 -40q0 8 -1.5 14.5t-6 11.5t-8 9.5t-11.5 8.5t-13 7t-15 6.5t-16 5.5t-18 5.5t-17 5.5q-55 -27 -55 -70q0 -32 19 -46t64 -14q78 0 78 56zM32 -35q0 61 67 93l1 2q-52 29 -52 88 q0 104 137 104q135 0 135 -104q0 -55 -53 -86v-2q69 -27 69 -95q0 -117 -151 -117q-153 0 -153 117z" unicode="₈" glyph-name="uni2088"/>
<glyph horiz-adv-x="368" d="M259 91q0 56 -20 79.5t-63 23.5q-35 0 -54 -17t-19 -48q0 -69 78 -69q55 0 78 31zM330 67q0 -114 -41.5 -166.5t-127.5 -52.5q-54 0 -101 18l10 58q41 -17 87 -17q52 0 79 31.5t31 100.5l-2 1q-36 -33 -92 -33q-138 0 -138 119q0 58 36 92.5t106 34.5q153 0 153 -186z " unicode="₉" glyph-name="uni2089"/>
<glyph horiz-adv-x="370" d="M326 22h-114v-112h-57v112h-111v61h111v114h57v-114h114v-61z" unicode="₊" glyph-name="uni208A"/>
<glyph horiz-adv-x="370" d="M322 27h-274v59h274v-59z" unicode="₋" glyph-name="uni208B"/>
<glyph horiz-adv-x="370" d="M322 -30h-274v53h274v-53zM322 87h-274v52h274v-52z" unicode="₌" glyph-name="uni208C"/>
<glyph horiz-adv-x="210" d="M148 280l50 -4q-71 -103 -71 -239q0 -133 71 -239l-50 -4q-87 93 -87 243q0 145 87 243z" unicode="₍" glyph-name="uni208D"/>
<glyph horiz-adv-x="210" d="M11 276l51 4q86 -95 86 -243q0 -151 -86 -243l-51 4q71 108 71 239q0 133 -71 239z" unicode="₎" glyph-name="uni208E"/>
<glyph horiz-adv-x="617" d="M20 181h85v569h460l3 -97h-361v-225h279v-91h-279v-156h91v-72h-91v-109h-102v109h-85v72z" unicode="₣" glyph-name="franc"/>
<glyph horiz-adv-x="662" d="M80 402l-4 58h36q-12 46 -12 85q0 95 64.5 155t207.5 60q107 0 189 -37l-14 -90q-73 35 -165 35t-135 -37.5t-43 -98.5q0 -38 9 -72h291v-58h-276q9 -35 14 -60h262v-58h-254q2 -24 2 -38q0 -112 -75 -161l1 -2q85 17 214 17q94 0 207 -12q0 -1 -2 -46.5t-3 -47.5 q-137 14 -248 14q-145 0 -285 -13l-5 90q47 16 73 58.5t26 97.5q0 15 -2 43h-69l-3 58h63q-4 24 -16 60h-48z" unicode="₤" glyph-name="lira"/>
<glyph horiz-adv-x="799" d="M300 528q0 83 -21 113t-75 30h-62v-290h62q53 0 74.5 29.5t21.5 117.5zM761 128q0 -139 -105 -139q-45 0 -70 23l2 67q26 -22 64 -22q50 0 50 69q0 27 -12.5 45.5t-30 31t-35.5 26.5t-30.5 41.5t-12.5 67.5q0 57 27 92.5t76 35.5q36 0 66 -20l-5 -66q-26 16 -57 16 q-45 0 -45 -57q0 -24 12 -41t29.5 -28.5t35 -26t29.5 -43.5t12 -72zM553 399h-59v-298q0 -44 33 -44q11 0 19 5l3 -62q-13 -9 -40 -9q-80 0 -80 109v299h-30v61h32l11 105l52 7v-112h59v-61zM377 529q0 -121 -40 -172.5t-133 -51.5h-61v-305h-74v750h135q92 0 132.5 -48.5 t40.5 -172.5z" unicode="₧" glyph-name="peseta"/>
<glyph horiz-adv-x="663" d="M486 344l-13 -57h-257q14 -112 69 -162t155 -50q87 0 167 45l8 -77q-78 -51 -196 -51q-140 0 -212.5 72t-88.5 223h-87l1 57h82v61h-82l-1 59h87q17 141 95 216.5t212 75.5q110 0 177 -36l-20 -81q-65 28 -139 28q-196 0 -226 -203h307l-14 -59h-299v-61h275z" unicode="€" glyph-name="Euro"/>
<glyph horiz-adv-x="663" d="M259 716h-84v-223h-58v223h-85v53h227v-53zM615 493h-51v128l2 81l-3 1l-29 -76l-55 -134h-43l-57 137l-29 76l-2 -1l1 -81v-131h-50v276h74l55 -134l29 -75h3l29 75l56 134h70v-276z" unicode="™" glyph-name="trademark"/>
<glyph horiz-adv-x="742" d="M371 761q304 0 304 -329q0 -104 -45 -193t-134 -151v-3h185v-85h-271v121q158 123 158 306q0 126 -47.5 183.5t-149.5 57.5t-149.5 -57.5t-47.5 -183.5q0 -183 158 -306v-121h-271v85h184l1 3q-179 124 -179 344q0 329 304 329z" unicode="Ω" glyph-name="uni2126"/>
<glyph horiz-adv-x="877" d="M277 751v-395h-73v226l3 79l-3 1l-83 -52l-6 60l117 81h45zM644 750h70l-504 -750h-70zM806 118q0 -123 -156 -123q-74 0 -129 32l16 56q52 -29 113 -29q86 0 86 67q0 33 -27 47t-96 14v50q64 0 89.5 14.5t25.5 43.5q0 50 -76 50q-64 0 -112 -36l-18 53q54 42 132 42 q67 0 104.5 -27t37.5 -77q0 -63 -66 -86v-2q76 -19 76 -89z" unicode="⅓" glyph-name="onethird"/>
<glyph horiz-adv-x="877" d="M812 118q0 -123 -156 -123q-74 0 -129 32l16 56q52 -29 113 -29q86 0 86 67q0 33 -27 47t-96 14v50q64 0 89.5 14.5t25.5 43.5q0 50 -76 50q-64 0 -112 -36l-18 53q54 42 132 42q67 0 104.5 -27t37.5 -77q0 -63 -66 -86v-2q76 -19 76 -89zM656 750h70l-504 -750h-70z M333 641q0 -55 -43.5 -103t-136.5 -118v-3h182l-1 -61h-274v47q16 14 44 39t42.5 38t35.5 33t32 33.5t22.5 30t16.5 30.5t5 28q0 57 -77 57q-51 0 -106 -37l-18 58q59 42 137 42q68 0 103.5 -30.5t35.5 -83.5z" unicode="⅔" glyph-name="twothirds"/>
<glyph horiz-adv-x="877" d="M583 293q0 -19 15 -32t30 -18t47 -14q45 24 45 60q0 55 -69 55q-68 0 -68 -51zM730 107q0 8 -1.5 14.5t-6 11.5t-8 9.5t-11.5 8.5t-13 7t-15 6.5t-16 5.5t-18 5.5t-17 5.5q-55 -27 -55 -70q0 -31 19 -45.5t64 -14.5q78 0 78 56zM498 112q0 62 67 94v3q-51 25 -51 87 q0 103 137 103q135 0 135 -103q0 -57 -53 -86v-2q69 -28 69 -96q0 -117 -151 -117q-153 0 -153 117zM641 750h70l-504 -750h-70zM281 751v-395h-73v226l3 79l-3 1l-83 -52l-6 60l117 81h45z" unicode="⅛" glyph-name="oneeighth"/>
<glyph horiz-adv-x="877" d="M593 293q0 -19 15 -32t30 -18t47 -14q45 24 45 60q0 55 -69 55q-68 0 -68 -51zM740 107q0 8 -1.5 14.5t-6 11.5t-8 9.5t-11.5 8.5t-13 7t-15 6.5t-16 5.5t-18 5.5t-17 5.5q-55 -27 -55 -70q0 -31 19 -45.5t64 -14.5q78 0 78 56zM508 112q0 62 67 94v3q-51 25 -51 87 q0 103 137 103q135 0 135 -103q0 -57 -53 -86v-2q69 -28 69 -96q0 -117 -151 -117q-153 0 -153 117zM653 750h70l-504 -750h-70zM348 474q0 -123 -155 -123q-76 0 -130 32l17 56q51 -30 113 -30q43 0 64 18.5t21 49.5q0 32 -26.5 46t-95.5 14v51q64 0 89.5 14t25.5 44 q0 49 -76 49q-64 0 -112 -36l-18 54q54 42 132 42q67 0 104.5 -27t37.5 -77q0 -63 -66 -86v-2q75 -20 75 -89z" unicode="⅜" glyph-name="threeeighths"/>
<glyph horiz-adv-x="877" d="M591 293q0 -19 15 -32t30 -18t47 -14q45 24 45 60q0 55 -69 55q-68 0 -68 -51zM738 107q0 8 -1.5 14.5t-6 11.5t-8 9.5t-11.5 8.5t-13 7t-15 6.5t-16 5.5t-18 5.5t-17 5.5q-55 -27 -55 -70q0 -31 19 -45.5t64 -14.5q78 0 78 56zM506 112q0 62 67 94v3q-51 25 -51 87 q0 103 137 103q135 0 135 -103q0 -57 -53 -86v-2q69 -28 69 -96q0 -117 -151 -117q-153 0 -153 117zM649 750h70l-504 -750h-70zM381 491q0 -140 -149 -140q-76 0 -127 29l12 58q53 -28 110 -28q44 0 63.5 18.5t19.5 57.5q0 62 -80 62q-50 0 -93 -16l-29 24l18 194h234 l2 -62h-180l-7 -91q35 9 71 9q135 0 135 -115z" unicode="⅝" glyph-name="fiveeighths"/>
<glyph horiz-adv-x="877" d="M583 293q0 -19 15 -32t30 -18t47 -14q45 24 45 60q0 55 -69 55q-68 0 -68 -51zM730 107q0 8 -1.5 14.5t-6 11.5t-8 9.5t-11.5 8.5t-13 7t-15 6.5t-16 5.5t-18 5.5t-17 5.5q-55 -27 -55 -70q0 -31 19 -45.5t64 -14.5q78 0 78 56zM498 112q0 62 67 94v3q-51 25 -51 87 q0 103 137 103q135 0 135 -103q0 -57 -53 -86v-2q69 -28 69 -96q0 -117 -151 -117q-153 0 -153 117zM641 750h70l-504 -750h-70zM416 749v-61l-167 -332h-85l174 327h-221l3 66h296z" unicode="⅞" glyph-name="seveneighths"/>
<glyph horiz-adv-x="632" d="M482 371q0 45 -38 79t-104 34q-92 0 -143 -68t-51 -196q0 -155 138 -155q93 0 145.5 89t52.5 217zM326 560q101 0 162 -61l2 2q-28 173 -194 173q-110 0 -188 -64l-25 69q95 79 228 79q119 0 195.5 -84.5t76.5 -259.5q0 -187 -83.5 -307t-229.5 -120q-111 0 -166 62 t-55 178q0 155 73.5 244t203.5 89z" unicode="∂" glyph-name="partialdiff"/>
<glyph horiz-adv-x="755" d="M376 636l-28 -77l-183 -473h421l-180 473l-27 77h-3zM411 754l299 -754h-667l299 754h69z" unicode="∆" glyph-name="uni2206"/>
<glyph horiz-adv-x="745" d="M244 -152h-90v826l-89 7l-2 69h622l-2 -68l-89 -7v-827h-89v820h-261v-820z" unicode="∏" glyph-name="product"/>
<glyph horiz-adv-x="703" d="M500 297l-238 -304l-51 -62l2 -3l80 2l361 1l-2 -83h-559v57l306 404l-306 380v61h542l2 -84h-417l-1 -2l51 -60l230 -285v-22z" unicode="∑" glyph-name="summation"/>
<glyph horiz-adv-x="597" d="M518 294h-439v90h439v-90z" unicode="−" glyph-name="minus"/>
<glyph horiz-adv-x="283" d="M204 345q0 -62 -62 -62q-33 0 -47.5 14.5t-14.5 47.5q0 61 62 61t62 -61z" unicode="∙" glyph-name="uni2219"/>
<glyph horiz-adv-x="585" d="M8 406v89h152l103 -316l24 -77h3l19 78l171 614h99l-232 -794h-113l-141 406h-85z" unicode="√" glyph-name="radical"/>
<glyph horiz-adv-x="742" d="M214 249q19 0 36 7.5t27.5 16.5t23 29.5t18.5 32t18 38.5q-24 40 -52.5 60.5t-69.5 20.5q-42 0 -65.5 -29t-23.5 -74q0 -48 25 -75t63 -27zM528 450q-24 0 -43 -9t-34.5 -30.5t-24 -37t-23.5 -48.5q49 -81 124 -81q41 0 64.5 29t23.5 74q0 48 -24.5 75.5t-62.5 27.5z M531 167q-100 0 -163 90q-56 -90 -156 -90q-73 0 -119 48.5t-46 133.5q0 82 43 132.5t120 50.5q101 0 163 -91q56 91 157 91q72 0 118 -49t46 -135q0 -81 -43 -131t-120 -50z" unicode="∞" glyph-name="infinity"/>
<glyph horiz-adv-x="283" d="M204 345q0 -62 -62 -62q-33 0 -47.5 14.5t-14.5 47.5q0 61 62 61t62 -61z" unicode="∤" glyph-name="uni2224"/>
<glyph horiz-adv-x="283" d="M204 345q0 -62 -62 -62q-33 0 -47.5 14.5t-14.5 47.5q0 61 62 61t62 -61z" unicode="∧" glyph-name="logicaland"/>
<glyph horiz-adv-x="318" d="M208 608l-1 -571q0 -100 -48.5 -147.5t-151.5 -47.5l-2 65q55 1 80.5 32t25.5 96v574q0 188 199 191l2 -67q-104 0 -104 -125z" unicode="∫" glyph-name="integral"/>
<glyph horiz-adv-x="649" d="M434 181q-41 0 -114 26.5t-106 26.5q-57 0 -111 -34v78q54 34 111 34q39 0 112.5 -27t107.5 -27q56 0 113 34v-78q-53 -33 -113 -33zM434 360q-41 0 -114 26.5t-106 26.5q-57 0 -111 -34v79q54 32 111 32q39 0 112.5 -26.5t107.5 -26.5q56 0 113 34v-78q-53 -33 -113 -33 z" unicode="≈" glyph-name="approxequal"/>
<glyph horiz-adv-x="649" d="M413 588l62 -32l-46 -91h118v-78h-158l-53 -105h211v-78h-250l-64 -126l-63 31l48 95h-115v78h154l54 105h-208v78h247z" unicode="≠" glyph-name="notequal"/>
<glyph horiz-adv-x="649" d="M541 50h-437v79h437v-79zM540 524l-297 -104l-76 -25v-3l77 -24l296 -99v-93l-440 171v94l440 178v-95z" unicode="≤" glyph-name="lessequal"/>
<glyph horiz-adv-x="649" d="M536 50h-436v79h436v-79zM100 176v93l296 99l78 24v3l-77 25l-296 104v95l440 -178v-94z" unicode="≥" glyph-name="greaterequal"/>
<glyph horiz-adv-x="283" d="M204 345q0 -62 -62 -62q-33 0 -47.5 14.5t-14.5 47.5q0 61 62 61t62 -61z" unicode="⋅" glyph-name="dotmath"/>
<glyph horiz-adv-x="613" d="M132 330l174 -202l175 202l-175 204zM29 330l277 324l278 -324l-278 -324z" unicode="◊" glyph-name="lozenge"/>
<glyph horiz-adv-x="332" d="M252 839l77 -6q-145 -202 -145 -458q0 -254 144 -458l-76 -6q-75 86 -116.5 206.5t-41.5 257.5q0 273 158 464z" glyph-name="parenleft.case"/>
<glyph horiz-adv-x="331" d="M3 833l77 6q157 -190 157 -464q0 -136 -41.5 -256.5t-115.5 -207.5l-76 6q143 205 143 458q0 255 -144 458z" glyph-name="parenright.case"/>
<glyph horiz-adv-x="405" d="M70 410h265v-71h-265v71z" glyph-name="hyphen.case"/>
<glyph horiz-adv-x="326" d="M94 -86v922h229v-71h-143v-781h144v-70h-230z" glyph-name="bracketleft.case"/>
<glyph horiz-adv-x="327" d="M232 836v-922h-229v69h144v782h-144v71h229z" glyph-name="bracketright.case"/>
<glyph d="M277 799h-79l-120 117h119z" glyph-name="grave.case"/>
<glyph horiz-adv-x="370" d="M253 479q0 -76 -60 -102v-3q60 -28 60 -102q0 -40 -7.5 -102.5t-7.5 -99.5q0 -83 99 -83h30v-75h-25q-102 0 -146.5 36.5t-44.5 108.5q0 40 9 109.5t9 106.5q0 32 -20.5 54t-54.5 26v44q34 4 54.5 26t20.5 54q0 38 -9 107t-9 109q0 72 44.5 108.5t146.5 36.5h25v-75h-30 q-99 0 -99 -82q0 -38 7.5 -100t7.5 -102z" glyph-name="braceleft.case"/>
<glyph horiz-adv-x="370" d="M117 272q0 75 61 102v3q-61 25 -61 102q0 40 7.5 102t7.5 100q0 82 -99 82h-30v75h25q101 0 145.5 -36.5t44.5 -108.5q0 -40 -9 -109t-9 -107q0 -32 20.5 -53.5t55.5 -26.5v-44q-35 -5 -55.5 -26.5t-20.5 -53.5q0 -37 9 -106.5t9 -109.5q0 -72 -44.5 -108.5t-145.5 -36.5 h-25v75h30q99 0 99 83q0 37 -7.5 99.5t-7.5 102.5z" glyph-name="braceright.case"/>
<glyph d="M343 848q0 -46 -46 -46t-46 46t46 46t46 -46zM151 848q0 -46 -46 -46t-46 46t46 46t46 -46z" glyph-name="dieresis.case"/>
<glyph horiz-adv-x="625" d="M317 495l-193 -120l193 -120v-78l-290 194v8l290 194v-78zM535 495l-193 -120l193 -120v-78l-290 194v8l290 194v-78z" glyph-name="guillemotleft.case"/>
<glyph horiz-adv-x="405" d="M70 410h265v-71h-265v71z" glyph-name="uni00AD.case"/>
<glyph d="M341 866v-52h-284v52h284z" glyph-name="macron.case"/>
<glyph d="M206 914h129l-130 -117h-78z" glyph-name="acute.case"/>
<glyph horiz-adv-x="625" d="M74 177v78l193 120l-193 120v78l291 -194v-8zM291 177v78l193 120l-193 120v78l291 -194v-8z" glyph-name="guillemotright.case"/>
<glyph d="M147 914h101l116 -117h-90l-76 74l-75 -74h-88z" glyph-name="circumflex.case"/>
<glyph d="M249 797h-101l-114 117h90l75 -77l76 77h88z" glyph-name="caron.case"/>
<glyph d="M283 914h72q0 -122 -154 -122q-156 0 -156 122h71q0 -68 85 -68q39 0 61 16t21 52z" glyph-name="breve.case"/>
<glyph d="M262 847q0 -47 -62 -47q-34 0 -48.5 10.5t-14.5 36.5q0 48 63 48q62 0 62 -48z" glyph-name="dotaccent.case"/>
<glyph d="M150 812q0 -38 48 -38t48 38t-48 38t-48 -38zM98 814q0 38 24.5 60.5t74.5 22.5q49 0 74.5 -22.5t25.5 -59.5q0 -83 -100 -83q-99 0 -99 82z" glyph-name="ring.case"/>
<glyph d="M240 20l41 -20q-29 0 -49 -22t-20 -49q0 -50 60 -50q33 0 58 14l9 -53q-40 -23 -93 -23t-80.5 23.5t-27.5 64.5q0 43 27 74t75 41z" glyph-name="ogonek.case"/>
<glyph d="M97 803l-45 1q5 48 27.5 77t59.5 29q32 0 73.5 -30t57.5 -30q30 0 40 47l43 -1q-4 -48 -27 -77t-60 -29q-31 0 -72 30t-57 30q-28 0 -40 -47z" glyph-name="tilde.case"/>
<glyph d="M282 914h106l-119 -118h-72zM119 914h104l-99 -118h-64z" glyph-name="hungarumlaut.case"/>
<glyph horiz-adv-x="532" d="M70 410h392v-71h-392v71z" glyph-name="endash.case"/>
<glyph horiz-adv-x="708" d="M70 410h568v-71h-568v71z" glyph-name="emdash.case"/>
<glyph horiz-adv-x="405" d="M336 495l-193 -120l193 -120v-78l-290 194v8l290 194v-78z" glyph-name="guilsinglleft.case"/>
<glyph horiz-adv-x="405" d="M69 177v78l193 120l-193 120v78l291 -194v-8z" glyph-name="guilsinglright.case"/>
<glyph horiz-adv-x="318" d="M164 461h56l-5 -77q44 -5 78 -18l-10 -57q-53 17 -95 17q-71 0 -71 -45q0 -22 29.5 -35.5t65 -20.5t65 -32.5t29.5 -69.5q0 -47 -28 -76.5t-79 -36.5l-3 -74h-56l4 73q-56 5 -97 28l10 60q49 -30 108 -30q74 0 74 50q0 23 -29.5 37.5t-65 22t-65 32.5t-29.5 68t27 72 t82 35z" glyph-name="dollar.dnom"/>
<glyph horiz-adv-x="210" d="M148 425l50 -4q-71 -103 -71 -239q0 -133 71 -239l-50 -4q-87 93 -87 243q0 145 87 243z" glyph-name="parenleft.dnom"/>
<glyph horiz-adv-x="210" d="M11 421l51 4q86 -95 86 -243q0 -151 -86 -243l-51 4q71 108 71 239q0 133 -71 239z" glyph-name="parenright.dnom"/>
<glyph horiz-adv-x="370" d="M326 170h-114v-113h-57v113h-111v61h111v113h57v-113h114v-61z" glyph-name="plus.dnom"/>
<glyph horiz-adv-x="158" d="M78 71q43 0 43 -47q0 -19 -15 -53t-33 -57l-25 6l16 70q-12 4 -20.5 14t-8.5 23q0 44 43 44z" glyph-name="comma.dnom"/>
<glyph horiz-adv-x="158" d="M123 31q0 -40 -44 -40q-23 0 -33.5 9t-10.5 31q0 42 44 42t44 -42z" glyph-name="period.dnom"/>
<glyph horiz-adv-x="368" d="M265 197q0 83 -18.5 112.5t-61.5 29.5q-45 0 -64 -29.5t-19 -112.5t19 -112.5t64 -29.5q43 0 61.5 29.5t18.5 112.5zM337 197q0 -107 -36 -154.5t-117 -47.5t-117 47.5t-36 154.5q0 110 36 156.5t118 46.5q81 0 116.5 -47t35.5 -156z" glyph-name="zero.dnom"/>
<glyph horiz-adv-x="271" d="M206 396v-396h-73v226l3 79l-3 1l-83 -52l-6 60l117 82h45z" glyph-name="one.dnom"/>
<glyph horiz-adv-x="353" d="M317 285q0 -55 -43.5 -103t-137.5 -118v-3h183l-1 -61h-274v48q16 14 44 39t42.5 38t35.5 33t32 33.5t22.5 29.5t16.5 30t5 28q0 58 -77 58q-51 0 -106 -37l-18 57q59 42 137 42q68 0 103.5 -30.5t35.5 -83.5z" glyph-name="two.dnom"/>
<glyph horiz-adv-x="353" d="M329 118q0 -123 -156 -123q-74 0 -129 32l16 56q52 -29 113 -29q86 0 86 67q0 33 -27 47t-96 14v50q64 0 89.5 14.5t25.5 43.5q0 50 -76 50q-64 0 -112 -36l-18 53q54 42 132 42q67 0 104.5 -27t37.5 -77q0 -63 -66 -86v-2q76 -19 76 -89z" glyph-name="three.dnom"/>
<glyph horiz-adv-x="368" d="M238 140l2 110l3 81l-2 1l-83 -126l-46 -63l1 -3h125zM349 81h-45v-81h-68v81h-202l-5 42l187 271h88v-254h47z" glyph-name="four.dnom"/>
<glyph horiz-adv-x="368" d="M331 135q0 -140 -149 -140q-74 0 -127 30l12 57q56 -28 110 -28q44 0 63.5 18.5t19.5 57.5q0 62 -80 62q-55 0 -93 -16l-29 25l18 193h234l2 -62h-180l-7 -91q41 9 71 9q135 0 135 -115z" glyph-name="five.dnom"/>
<glyph horiz-adv-x="368" d="M263 136q0 33 -17 48t-55 15q-55 0 -81 -32q1 -61 19.5 -86.5t60.5 -25.5q73 0 73 81zM335 136q0 -141 -146 -141q-76 0 -114.5 45.5t-38.5 145.5q0 213 179 213q53 0 97 -16l-5 -59q-38 14 -83 14q-55 0 -83 -27t-34 -83l2 -2q39 27 94 27q132 0 132 -117z" glyph-name="six.dnom"/>
<glyph horiz-adv-x="368" d="M335 394v-61l-167 -333h-85l174 328h-221l3 66h296z" glyph-name="seven.dnom"/>
<glyph horiz-adv-x="368" d="M117 293q0 -19 15 -32t30 -18t47 -14q45 24 45 60q0 55 -69 55q-68 0 -68 -51zM264 107q0 8 -1.5 14.5t-6 11.5t-8 9.5t-11.5 8.5t-13 7t-15 6.5t-16 5.5t-18 5.5t-17 5.5q-55 -27 -55 -70q0 -31 19 -45.5t64 -14.5q78 0 78 56zM32 112q0 62 67 94v3q-51 25 -51 87 q0 103 137 103q135 0 135 -103q0 -57 -53 -86v-2q69 -28 69 -96q0 -117 -151 -117q-153 0 -153 117z" glyph-name="eight.dnom"/>
<glyph horiz-adv-x="368" d="M259 238q0 57 -20 80t-63 23q-35 0 -54 -17t-19 -48q0 -69 78 -69q55 0 78 31zM330 215q0 -114 -41.5 -167t-127.5 -53q-55 0 -101 19l10 57q45 -17 87 -17q52 0 79 31.5t31 100.5l-2 1q-36 -33 -92 -33q-71 0 -104.5 32t-33.5 87q0 58 36 92.5t106 34.5q153 0 153 -185z " glyph-name="nine.dnom"/>
<glyph horiz-adv-x="370" d="M322 117h-274v53h274v-53zM322 234h-274v53h274v-53z" glyph-name="equal.dnom"/>
<glyph horiz-adv-x="318" d="M292 367l-5 -58q-37 14 -75 14q-57 0 -81 -27.5t-24 -93.5q0 -68 26 -98t78 -30q44 0 79 18l6 -53q-30 -21 -80 -25l-3 -79h-57l5 81q-129 18 -129 186q0 171 143 182l5 77h57l-6 -78q31 -4 61 -16z" glyph-name="cent.dnom"/>
<glyph horiz-adv-x="370" d="M322 174h-274v59h274v-59z" glyph-name="minus.dnom"/>
<glyph horiz-adv-x="634" d="M486 375q0 118 -19 182.5t-54 88t-96 23.5q-62 0 -97.5 -23.5t-54.5 -88.5t-19 -182q0 -119 19.5 -184.5t54.5 -88.5t97 -23t97 23.5t53.5 88.5t18.5 184zM584 374q0 -206 -63 -295.5t-204 -89.5q-143 0 -205.5 89t-62.5 296q0 211 62 298t206 87q143 0 205 -87t62 -298z " glyph-name="zero.lf"/>
<glyph horiz-adv-x="474" d="M349 752v-752h-102v538l2 81l-2 1l-156 -106l-11 88l210 150h59z" glyph-name="one.lf"/>
<glyph horiz-adv-x="630" d="M556 552q0 -45 -18 -91.5t-45 -86t-76 -90.5t-92.5 -90t-114.5 -99v-3h351l-3 -92h-483v69q27 26 80 75.5t80 75.5t68.5 67.5t63 69t45 62t33 64.5t9.5 59q0 56 -39.5 90t-120.5 34q-101 0 -193 -73l-26 83q99 82 236 82q118 0 181.5 -54.5t63.5 -151.5z" glyph-name="two.lf"/>
<glyph horiz-adv-x="630" d="M570 224q0 -109 -68.5 -171t-206.5 -62q-127 0 -225 60l21 82q91 -55 202 -55q89 0 134.5 40.5t45.5 109.5t-54.5 100t-184.5 31v75q119 0 171 31.5t52 94.5q0 54 -41 81.5t-117 27.5q-111 0 -199 -72l-26 80q95 81 230 81q116 0 180.5 -49.5t64.5 -141.5 q0 -123 -123 -166v-2q144 -38 144 -175z" glyph-name="three.lf"/>
<glyph horiz-adv-x="645" d="M415 250l5 332l3 81l-2 1l-210 -346l-43 -65l1 -3h246zM595 163h-91v-163h-92v163h-346l-9 65l326 522h121v-500h95z" glyph-name="four.lf"/>
<glyph horiz-adv-x="604" d="M554 256q0 -265 -262 -265q-127 0 -218 60l19 84q92 -57 191 -57q89 0 131 42t42 127q0 74 -40.5 107.5t-126.5 33.5q-98 0 -174 -38l-38 39l30 361h409l4 -92h-335l-17 -209q68 24 147 24q238 0 238 -217z" glyph-name="five.lf"/>
<glyph horiz-adv-x="618" d="M471 259q0 72 -37 106t-117 34q-44 0 -92 -20t-75 -52q1 -136 39.5 -192.5t125.5 -56.5q156 0 156 181zM568 258q0 -133 -64.5 -200t-188.5 -67q-134 0 -200 83.5t-66 277.5q0 407 313 407q89 0 166 -30l-9 -88q-69 26 -145 26q-110 0 -166.5 -61t-63.5 -192l3 -2 q82 66 188 66q119 0 176 -54.5t57 -165.5z" glyph-name="six.lf"/>
<glyph horiz-adv-x="626" d="M575 750v-87l-312 -663h-113l328 654h-420l5 96h512z" glyph-name="seven.lf"/>
<glyph horiz-adv-x="624" d="M170 563q0 -26 11 -47t24.5 -33.5t43 -25.5t46.5 -18.5t56 -16.5q56 26 82 59t26 78q0 117 -147 117q-142 0 -142 -113zM478 201q0 19 -5.5 35t-12 27.5t-22 23.5t-25 18.5t-33 16t-33.5 13t-39 12.5t-38 12q-126 -57 -126 -152q0 -69 40 -101.5t131 -32.5q163 0 163 128 zM49 208q0 61 35.5 110t97.5 77v3q-104 51 -104 169q0 191 235 191q234 0 234 -191q0 -115 -109 -173v-2q64 -25 100 -67.5t36 -116.5q0 -217 -261 -217q-135 0 -199.5 54t-64.5 163z" glyph-name="eight.lf"/>
<glyph horiz-adv-x="618" d="M471 448q-3 224 -173 224q-154 0 -154 -145q0 -146 162 -146q109 0 165 67zM569 412q0 -222 -73.5 -321.5t-225.5 -99.5q-97 0 -175 35l15 84q72 -31 150 -31q107 0 158 65t57 214l-2 1q-71 -59 -183 -59q-121 0 -181 59t-60 164q0 112 63 174t188 62q129 0 199 -87.5 t70 -259.5z" glyph-name="nine.lf"/>
<glyph horiz-adv-x="318" d="M164 817h56l-5 -78q42 -5 78 -17l-10 -58q-53 17 -95 17q-71 0 -71 -44q0 -22 29.5 -35.5t65 -20.5t65 -33t29.5 -70q0 -47 -27.5 -76t-79.5 -36l-3 -75h-56l4 74q-55 3 -97 27l10 60q49 -30 108 -30q74 0 74 51q0 19 -19.5 31t-47.5 20t-55.5 18t-47 33t-19.5 58 q0 42 27 71t82 35z" glyph-name="dollar.numr"/>
<glyph horiz-adv-x="210" d="M148 781l50 -5q-71 -103 -71 -239q0 -134 71 -238l-50 -5q-87 93 -87 243q0 146 87 244z" glyph-name="parenleft.numr"/>
<glyph horiz-adv-x="210" d="M11 776l51 5q86 -95 86 -244q0 -151 -86 -243l-51 5q71 107 71 238q0 133 -71 239z" glyph-name="parenright.numr"/>
<glyph horiz-adv-x="370" d="M326 525h-114v-112h-57v112h-111v61h111v114h57v-114h114v-61z" glyph-name="plus.numr"/>
<glyph horiz-adv-x="158" d="M78 426q43 0 43 -46q0 -19 -15.5 -53t-32.5 -57l-25 5l16 70q-11 4 -20 14.5t-9 23.5q0 43 43 43z" glyph-name="comma.numr"/>
<glyph horiz-adv-x="158" d="M123 386q0 -40 -44 -40t-44 40q0 42 44 42t44 -42z" glyph-name="period.numr"/>
<glyph horiz-adv-x="368" d="M265 553q0 83 -18.5 112.5t-61.5 29.5q-45 0 -64 -29.5t-19 -112.5q0 -84 19 -113.5t64 -29.5q43 0 61.5 30t18.5 113zM337 552q0 -107 -36 -154.5t-117 -47.5t-117 47.5t-36 154.5q0 110 36 156.5t118 46.5q81 0 116.5 -47t35.5 -156z" glyph-name="zero.numr"/>
<glyph horiz-adv-x="271" d="M206 751v-395h-73v226l3 79l-3 1l-83 -52l-6 60l117 81h45z" glyph-name="one.numr"/>
<glyph horiz-adv-x="353" d="M317 641q0 -55 -43.5 -103t-136.5 -118v-3h182l-1 -61h-274v47q16 14 44 39t42.5 38t35.5 33t32 33.5t22.5 30t16.5 30.5t5 28q0 57 -77 57q-51 0 -106 -37l-18 58q59 42 137 42q68 0 103.5 -30.5t35.5 -83.5z" glyph-name="two.numr"/>
<glyph horiz-adv-x="353" d="M319 474q0 -123 -155 -123q-76 0 -130 32l17 56q51 -30 113 -30q43 0 64 18.5t21 49.5q0 32 -26.5 46t-95.5 14v51q64 0 89.5 14t25.5 44q0 49 -76 49q-64 0 -112 -36l-18 54q54 42 132 42q67 0 104.5 -27t37.5 -77q0 -63 -66 -86v-2q75 -20 75 -89z" glyph-name="three.numr"/>
<glyph horiz-adv-x="368" d="M238 495l2 110l3 81l-2 1l-83 -126l-46 -63l1 -3h125zM349 437h-45v-81h-68v81h-202l-5 41l187 272h88v-255h47z" glyph-name="four.numr"/>
<glyph horiz-adv-x="368" d="M331 491q0 -140 -149 -140q-76 0 -127 29l12 58q53 -28 110 -28q44 0 63.5 18.5t19.5 57.5q0 62 -80 62q-50 0 -93 -16l-29 24l18 194h234l2 -62h-180l-7 -91q34 9 71 9q135 0 135 -115z" glyph-name="five.numr"/>
<glyph horiz-adv-x="368" d="M263 492q0 33 -17 48t-55 15q-55 0 -81 -32q1 -62 19.5 -87.5t60.5 -25.5q73 0 73 82zM335 491q0 -140 -146 -140q-76 0 -114.5 45t-38.5 145q0 214 179 214q55 0 97 -17l-5 -58q-35 13 -83 13q-55 0 -83 -26.5t-34 -83.5l2 -2q40 28 94 28q132 0 132 -118z" glyph-name="six.numr"/>
<glyph horiz-adv-x="368" d="M335 749v-61l-167 -332h-85l174 327h-221l3 66h296z" glyph-name="seven.numr"/>
<glyph horiz-adv-x="368" d="M117 648q0 -19 15 -32t29.5 -18t47.5 -14q45 24 45 61q0 55 -69 55q-68 0 -68 -52zM264 463q0 8 -1.5 14.5t-6 11.5t-8 9.5t-11.5 8.5t-13 7t-15 6.5t-16 5.5t-18 5.5t-17 5.5q-55 -28 -55 -70q0 -32 19 -46t64 -14q78 0 78 56zM32 467q0 62 66 94l1 2q-51 28 -51 88 q0 104 137 104q135 0 135 -104q0 -55 -53 -86v-2q69 -27 69 -95q0 -118 -151 -118q-153 0 -153 117z" glyph-name="eight.numr"/>
<glyph horiz-adv-x="368" d="M259 594q0 56 -20 79.5t-63 23.5q-35 0 -54 -17t-19 -48q0 -69 78 -69q55 0 78 31zM330 570q0 -114 -41.5 -166.5t-127.5 -52.5q-54 0 -101 18l10 58q41 -17 87 -17q52 0 79 31t31 100l-2 1q-37 -32 -92 -32q-138 0 -138 119q0 58 36 92t106 34q153 0 153 -185z" glyph-name="nine.numr"/>
<glyph horiz-adv-x="370" d="M322 473h-274v53h274v-53zM322 590h-274v52h274v-52z" glyph-name="equal.numr"/>
<glyph horiz-adv-x="318" d="M292 722l-5 -58q-33 14 -75 14q-58 0 -81.5 -27.5t-23.5 -92.5q0 -68 26 -98.5t78 -30.5q43 0 79 19l6 -53q-30 -21 -80 -25l-3 -79h-57l5 80q-129 18 -129 187q0 170 143 181l5 78h57l-6 -79q31 -4 61 -16z" glyph-name="cent.numr"/>
<glyph horiz-adv-x="370" d="M322 529h-274v60h274v-60z" glyph-name="minus.numr"/>
<glyph horiz-adv-x="597" d="M244 398l-23 -141h132l22 141h-131zM45 257h101l23 141h-124v70h134l26 181h75l-26 -181h131l26 181h73l-26 -181h94v-70h-104l-23 -141h127v-71h-136l-27 -186h-73l27 186h-132l-27 -186h-74l27 186h-92v71z" glyph-name="numbersign.osf"/>
<glyph horiz-adv-x="491" d="M448 175q0 -78 -40.5 -126t-124.5 -58l-7 -135h-75l7 133q-96 6 -153 49l12 82q69 -52 170 -52q62 0 92.5 26.5t30.5 71.5q0 37 -31.5 60t-76 37t-89.5 31t-76.5 53t-31.5 92q0 72 46 115.5t134 50.5l8 126h76l-9 -128q59 -6 114 -31l-8 -80q-76 32 -155 32 q-53 0 -84.5 -21.5t-31.5 -58.5q0 -35 31 -56t76 -34.5t89.5 -30t75.5 -53.5t31 -95z" glyph-name="dollar.osf"/>
<glyph horiz-adv-x="626" d="M475 314q0 135 -37.5 186.5t-123.5 51.5q-88 0 -126.5 -51.5t-38.5 -186.5q0 -137 38.5 -188t126.5 -51q86 0 123.5 51.5t37.5 187.5zM570 313q0 -169 -61 -246t-196 -77q-136 0 -197 77t-61 246q0 174 60.5 250t198.5 76q135 0 195.5 -76.5t60.5 -249.5z" glyph-name="zero.osf"/>
<glyph horiz-adv-x="467" d="M343 632v-632h-97v428l2 80l-2 2l-147 -94l-10 83l197 133h57z" glyph-name="one.osf"/>
<glyph horiz-adv-x="588" d="M521 457q0 -48 -21 -92t-70.5 -92.5t-97 -86t-133.5 -99.5v-3h327l-3 -84h-456v65q32 27 89.5 73.5t86.5 71t69.5 62t60.5 63t35 56t15 58.5q0 46 -36.5 74.5t-112.5 28.5q-95 0 -183 -64l-26 78q97 73 224 73q112 0 172 -49t60 -133z" glyph-name="two.osf"/>
<glyph horiz-adv-x="578" d="M519 163q0 -127 -104 -198.5t-291 -75.5l-8 80q158 3 235 55.5t77 136.5q0 115 -155 116q-26 0 -68 -6l-4 68q116 13 160 41.5t44 79.5q0 94 -142 94q-105 0 -187 -60l-23 77q37 31 95 49.5t121 18.5q109 0 166 -45.5t57 -120.5q0 -106 -98 -148v-2q125 -33 125 -160z " glyph-name="three.osf"/>
<glyph horiz-adv-x="614" d="M413 148l6 324l3 81l-2 1l-45 -68l-186 -272l-46 -63l1 -3h269zM583 68h-85v-172l-88 -6v178h-365l-8 64l355 506l106 -7v-483h89z" glyph-name="four.osf"/>
<glyph horiz-adv-x="567" d="M518 177q0 -131 -102.5 -208t-296.5 -81l-8 84q154 4 233 56.5t79 138.5q0 118 -159 118q-91 0 -164 -38l-36 38l29 345h390l5 -92h-320l-16 -193q69 24 140 24q110 0 168 -50t58 -142z" glyph-name="five.osf"/>
<glyph horiz-adv-x="592" d="M450 252q0 68 -35.5 101t-110.5 33q-42 0 -87 -19t-71 -50q2 -131 39.5 -184.5t116.5 -53.5q148 0 148 173zM543 252q0 -261 -242 -261q-123 0 -187.5 79.5t-64.5 255.5q0 200 111 307t285 112l14 -84q-142 -4 -223 -71.5t-94 -187.5l2 -2q78 63 177 63q113 0 167.5 -52 t54.5 -159z" glyph-name="six.osf"/>
<glyph horiz-adv-x="581" d="M531 629v-82l-301 -647h-107l304 635h-380l6 94h478z" glyph-name="seven.osf"/>
<glyph horiz-adv-x="601" d="M166 470q0 -20 9.5 -36t22 -26.5t37.5 -20t42 -14.5t51 -13q11 -3 16 -4q96 40 96 109q0 49 -33 73t-107 24q-134 0 -134 -92zM457 171q0 18 -5 32t-18.5 25.5t-24 19t-34.5 16t-36 12.5t-42.5 12t-41.5 11q-114 -45 -114 -122q0 -56 38 -82.5t124 -26.5q154 0 154 103z M49 175q0 50 31.5 91.5t86.5 65.5v3q-91 42 -91 140q0 77 55.5 120.5t170.5 43.5q223 0 223 -165q0 -95 -94 -143v-2q121 -43 121 -153q0 -186 -250 -186q-253 0 -253 185z" glyph-name="eight.osf"/>
<glyph horiz-adv-x="582" d="M438 350q-1 106 -38 153t-117 47q-139 0 -139 -137q0 -138 144 -138q110 0 150 75zM533 332q0 -111 -29.5 -196t-83 -137.5t-123.5 -79.5t-156 -29l-9 83q128 5 209 76t95 202l-2 1q-61 -61 -166 -61q-104 0 -161.5 55.5t-57.5 164.5q0 107 60 167.5t175 60.5 q249 0 249 -307z" glyph-name="nine.osf"/>
<glyph horiz-adv-x="500" d="M451 576l-6 -85q-59 27 -121 27q-96 0 -136.5 -50t-40.5 -166q0 -123 43.5 -176.5t131.5 -53.5q71 0 127 34l7 -78q-48 -34 -129 -40l-6 -132h-76l7 135q-203 26 -203 311q0 143 54 218t169 84l9 127h75l-9 -129q55 -6 104 -26z" glyph-name="cent.osf"/>
<glyph horiz-adv-x="549" d="M56 289l-4 71h45q-20 64 -20 108q0 84 57 136.5t186 52.5q92 0 168 -32l-13 -79q-67 29 -147 29q-156 0 -156 -114q0 -37 17 -101h237v-71h-220q7 -40 7 -76q0 -96 -63 -137l1 -2q73 14 188 14q92 0 183 -11l-6 -82q-134 12 -221 12q-121 0 -253 -11l-3 79q41 13 63 49.5 t22 83.5q0 43 -8 81h-60z" glyph-name="sterling.osf"/>
<glyph horiz-adv-x="597" d="M189 330q0 -45 31.5 -75.5t76.5 -30.5q46 0 77.5 30.5t31.5 75.5q0 44 -31.5 74.5t-77.5 30.5q-45 0 -76.5 -30.5t-31.5 -74.5zM124 329q0 53 28 97l-63 64l49 54l65 -68q45 29 95 29t94 -29l67 68l49 -53l-65 -67q28 -44 28 -95q0 -50 -25 -91l62 -64l-49 -53l-62 63 q-43 -31 -99 -31t-99 31l-62 -64l-48 54l60 63q-25 41 -25 92z" glyph-name="currency.osf"/>
<glyph horiz-adv-x="597" d="M124 293h101l-198 356h104l133 -270l34 -73h3l33 73l131 270h102l-193 -356h99v-53h-124v-51h124v-52h-124v-137h-99v137h-126v52h126v51h-126v53z" glyph-name="yen.osf"/>
<glyph horiz-adv-x="597" d="M35 160h81l-1 489h436l2 -86h-344v-191h266v-82h-266v-130h85v-65h-85v-95h-93v95h-81v65z" glyph-name="franc.osf"/>
<glyph horiz-adv-x="597" d="M67 347l-4 51h32q-9 32 -9 67q0 85 59.5 139t192.5 54q98 0 178 -35l-13 -79q-67 30 -157 30q-86 0 -126 -31.5t-40 -84.5q0 -27 7 -60h274v-51h-260q10 -34 14 -52h246v-50h-239q2 -22 2 -33q0 -93 -65 -136l1 -2q83 15 198 15q89 0 192 -12l-6 -82q-141 12 -231 12 q-141 0 -264 -11l-3 80q43 13 65.5 49t22.5 82q0 14 -2 38h-63l-2 50h57q-4 18 -14 52h-43z" glyph-name="lira.osf"/>
<glyph horiz-adv-x="597" d="M212 459q0 76 -14 99.5t-53 23.5h-48v-250h48q38 0 52.5 24.5t14.5 102.5zM567 111q0 -119 -82 -119q-34 0 -54 17l2 55q20 -16 46 -16q40 0 40 63q0 23 -9.5 39t-22.5 27t-26.5 24t-23 36.5t-9.5 56.5q0 48 21.5 79.5t59.5 31.5q28 0 49 -16l-3 -56q-21 13 -42 13 q-36 0 -36 -51q0 -22 9.5 -37t22.5 -25.5t26 -23t22.5 -37.5t9.5 -61zM409 348h-47v-264q0 -37 26 -37q5 0 15 5l2 -51q-10 -8 -31 -8q-63 0 -63 90v265h-23v51h25l9 92l39 7v-99h48v-51zM269 460q0 -111 -26.5 -151t-97.5 -40h-48v-269h-57v649h104q70 0 97.5 -39 t27.5 -150z" glyph-name="peseta.osf"/>
<glyph horiz-adv-x="597" d="M559 622l-25 -78q-60 29 -138 29q-94 0 -143.5 -37.5t-63.5 -117.5h307l-19 -55h-294q-1 -11 -1 -33q0 -25 1 -36h272l-19 -52h-247q15 -89 66.5 -129.5t139.5 -40.5t153 43l6 -79q-73 -49 -183 -49q-254 0 -290 255h-48v52h43v69h-43v55h49q36 242 292 242 q107 0 185 -38z" glyph-name="Euro.osf"/>
<glyph horiz-adv-x="293" d="M204 41q0 -51 -56 -51q-29 0 -42.5 12t-13.5 39q0 52 56 52t56 -52zM180 177h-69l-14 472h96z" glyph-name="exclam.sc"/>
<glyph horiz-adv-x="654" d="M216 510q0 -44 38 -104q41 26 61.5 41t39 38.5t18.5 46.5q0 57 -77 57q-37 0 -58.5 -20.5t-21.5 -58.5zM266 72q74 0 137 60q-97 79 -170 169q-76 -64 -76 -132q0 -46 29.5 -71.5t79.5 -25.5zM644 73l-32 -82q-68 35 -146 92q-93 -95 -214 -95q-96 0 -142 50t-46 124 q0 110 124 200q-55 83 -55 148q0 68 40 108.5t125 40.5q75 0 120 -33t45 -85q0 -37 -24.5 -72.5t-51.5 -56.5t-75 -54q-10 -7 -15 -10q59 -72 159 -152q44 69 57 140h77q-9 -89 -72 -187q68 -47 126 -76z" glyph-name="ampersand.sc"/>
<glyph horiz-adv-x="491" d="M292 41q0 -51 -55 -51q-29 0 -42.5 12t-13.5 39q0 52 56 52q55 0 55 -52zM443 500q0 -131 -168 -214l-5 -109h-69l-6 145q79 42 116.5 79t37.5 86q0 88 -115 88q-91 0 -160 -60l-34 71q78 73 206 73q97 0 147 -41.5t50 -117.5z" glyph-name="question.sc"/>
<glyph d="M272 697h-73l-117 131h110z" glyph-name="grave.sc"/>
<glyph horiz-adv-x="662" d="M328 576l-26 -77l-97 -266h246l-95 266l-25 77h-3zM534 0l-55 153h-303l-55 -153h-103l255 649h113l257 -649h-109z" glyph-name="a.sc"/>
<glyph horiz-adv-x="622" d="M456 469q0 51 -27 74t-87 23h-162v-195h170q106 0 106 98zM480 192q0 108 -126 108h-174v-219h178q62 0 92 25.5t30 85.5zM575 185q0 -185 -219 -185h-268v649h257q202 0 202 -163q0 -111 -94 -142v-2q122 -27 122 -157z" glyph-name="b.sc"/>
<glyph horiz-adv-x="557" d="M510 629l-12 -85q-67 29 -146 29q-111 0 -159 -55t-48 -189q0 -142 48.5 -198.5t160.5 -56.5q75 0 146 32l12 -79q-76 -38 -170 -38q-152 0 -224.5 83t-72.5 257q0 167 74 249t229 82q91 0 162 -31z" glyph-name="c.sc"/>
<glyph horiz-adv-x="669" d="M524 327q0 132 -45 183t-152 51h-143v-474h143q106 0 151.5 51t45.5 189zM624 326q0 -171 -72 -248.5t-222 -77.5h-242v649h240q156 0 226 -77t70 -246z" glyph-name="d.sc"/>
<glyph horiz-adv-x="576" d="M184 85h350l-3 -85h-443v649h428l2 -87h-334v-186h286v-77h-286v-214z" glyph-name="e.sc"/>
<glyph horiz-adv-x="554" d="M518 560h-334v-193h292v-84h-292v-283h-96v649h427z" glyph-name="f.sc"/>
<glyph horiz-adv-x="619" d="M557 342v-316q-83 -38 -200 -38q-163 0 -237.5 81t-74.5 254q0 174 75.5 255.5t238.5 81.5q105 0 184 -33l-11 -84q-78 31 -168 31q-118 0 -168.5 -55t-50.5 -195q0 -138 47.5 -193.5t161.5 -55.5q69 0 117 19v248h86z" glyph-name="g.sc"/>
<glyph horiz-adv-x="693" d="M605 0h-97v291h-324v-291h-96v649h96v-270h324v270h97v-649z" glyph-name="h.sc"/>
<glyph horiz-adv-x="299" d="M100 0v649h98v-649h-98z" glyph-name="i.sc"/>
<glyph horiz-adv-x="460" d="M381 649v-436q0 -115 -54 -170t-152 -55q-86 0 -137 37l7 83q48 -35 113 -35t96 34t31 105v437h96z" glyph-name="j.sc"/>
<glyph horiz-adv-x="649" d="M625 0h-122l-219 296h-100v-296h-96v649h95v-272h105l210 272h113l-239 -307z" glyph-name="k.sc"/>
<glyph horiz-adv-x="531" d="M184 88h322l-3 -88h-415v649h96v-561z" glyph-name="l.sc"/>
<glyph horiz-adv-x="842" d="M88 649h108l193 -447l31 -74h3l30 74l195 447h106v-649h-87v422l2 81l-3 1l-30 -76l-184 -428h-64l-182 421l-31 75l-2 -1l1 -81v-414h-86v649z" glyph-name="m.sc"/>
<glyph horiz-adv-x="698" d="M610 0h-76l-314 444l-45 67l-2 -1l1 -81v-429h-86v649h86l350 -495l2 1l-2 80v414h86v-649z" glyph-name="n.sc"/>
<glyph horiz-adv-x="664" d="M519 324q0 142 -41 195.5t-145 53.5t-146 -53.5t-42 -195.5q0 -141 42.5 -195.5t145.5 -54.5t144.5 54.5t41.5 195.5zM619 324q0 -177 -66.5 -256t-219.5 -79t-220.5 80t-67.5 255q0 176 67 255.5t221 79.5q153 0 219.5 -79.5t66.5 -255.5z" glyph-name="o.sc"/>
<glyph horiz-adv-x="603" d="M461 443q0 68 -33 96t-108 28h-136v-250h136q76 0 108.5 27t32.5 99zM560 443q0 -103 -57 -154t-183 -51h-136v-238h-96v649h232q125 0 182.5 -50t57.5 -156z" glyph-name="p.sc"/>
<glyph horiz-adv-x="680" d="M527 324q0 142 -41 195.5t-145 53.5t-146 -53.5t-42 -195.5q0 -141 42.5 -195.5t145.5 -54.5t144.5 54.5t41.5 195.5zM627 324q0 -150 -46 -228t-151 -97v-3l147 -107l-112 -18l-143 118q-143 4 -206 84.5t-63 250.5q0 176 67 255.5t221 79.5q153 0 219.5 -79.5 t66.5 -255.5z" glyph-name="q.sc"/>
<glyph horiz-adv-x="622" d="M446 458q0 59 -27.5 84.5t-93.5 25.5h-141v-226h137q68 0 96.5 26.5t28.5 89.5zM546 461q0 -73 -34 -117.5t-99 -56.5l178 -287h-115l-153 268h-139v-268h-96v649h237q221 0 221 -188z" glyph-name="r.sc"/>
<glyph horiz-adv-x="533" d="M490 187q0 -92 -61.5 -145t-173.5 -53q-117 0 -204 50l15 84q88 -51 189 -51q70 0 106.5 29t36.5 80q0 33 -25.5 56.5t-63 35t-82 27t-82 33t-63 54t-25.5 88.5q0 81 57 132.5t170 51.5q108 0 183 -36l-13 -81q-90 32 -167 32q-72 0 -105 -26.5t-33 -67.5q0 -32 25.5 -54 t63 -32.5t82 -26t82 -33.5t63 -56t25.5 -91z" glyph-name="s.sc"/>
<glyph horiz-adv-x="538" d="M523 562h-206v-562h-97v562h-205l2 87h504z" glyph-name="t.sc"/>
<glyph horiz-adv-x="684" d="M606 649v-406q0 -255 -263 -255q-265 0 -265 255v406h96v-406q0 -86 41.5 -126.5t127.5 -40.5q85 0 126 41t41 126v406h96z" glyph-name="u.sc"/>
<glyph horiz-adv-x="647" d="M522 649h102l-246 -649h-108l-248 649h108l169 -488l25 -77h3l24 77z" glyph-name="v.sc"/>
<glyph horiz-adv-x="940" d="M419 649h106l124 -483l19 -78h3l16 79l110 482h96l-167 -649h-118l-119 479l-17 80h-3l-18 -80l-119 -479h-117l-168 649h102l109 -487l16 -79h3l18 79z" glyph-name="w.sc"/>
<glyph horiz-adv-x="652" d="M601 649l-206 -310l220 -339h-113l-177 281l-172 -281h-115l214 337l-207 312h119l163 -256l161 256h113z" glyph-name="x.sc"/>
<glyph horiz-adv-x="627" d="M22 649h112l145 -277l36 -72h3l35 72l145 277h107l-240 -429v-220h-100v220z" glyph-name="y.sc"/>
<glyph horiz-adv-x="578" d="M525 0h-476v63l310 433l48 63l-1 2h-347l4 88h462v-72l-306 -424l-48 -62l1 -3h355z" glyph-name="z.sc"/>
<glyph horiz-adv-x="302" d="M89 610q0 55 61 55t61 -55q0 -57 -61 -57t-61 57zM114 454h76l12 -548h-101z" glyph-name="exclamdown.sc"/>
<glyph d="M327 769q0 -43 -44 -43t-44 43q0 42 44 42t44 -42zM164 769q0 -43 -44 -43t-44 43q0 42 44 42t44 -42z" glyph-name="dieresis.sc"/>
<glyph d="M343 779v-56h-283v56h283z" glyph-name="macron.sc"/>
<glyph d="M239 828h118l-137 -131h-79z" glyph-name="acute.sc"/>
<glyph d="M126 -191l63 196l64 1l-37 -197h-90z" glyph-name="cedilla.sc"/>
<glyph horiz-adv-x="527" d="M210 610q0 56 61 56t61 -56q0 -57 -61 -57t-61 57zM48 78q0 81 46 140.5t136 107.5l4 128h75l6 -164q-87 -52 -128 -96.5t-41 -102.5q0 -102 126 -102q100 0 176 68l35 -77q-38 -37 -96.5 -59t-125.5 -22q-105 0 -159 46.5t-54 132.5z" glyph-name="questiondown.sc"/>
<glyph horiz-adv-x="700" d="M552 395l-205 205l-51 -51l51 -51l-102 -103l51 -51l103 103l51 -52l-103 -102l52 -51zM563 395l-216 -215l-215 215l215 216z" glyph-name="germandbls.sc"/>
<glyph horiz-adv-x="662" d="M397 697h-73l-117 131h110zM328 576l-26 -77l-97 -266h246l-95 266l-25 77h-3zM534 0l-55 153h-303l-55 -153h-103l255 649h113l257 -649h-109z" glyph-name="agrave.sc"/>
<glyph horiz-adv-x="662" d="M365 828h118l-137 -131h-79zM328 576l-26 -77l-97 -266h246l-95 266l-25 77h-3zM534 0l-55 153h-303l-55 -153h-103l255 649h113l257 -649h-109z" glyph-name="aacute.sc"/>
<glyph horiz-adv-x="662" d="M285 828h84l105 -131h-76l-70 95l-70 -95h-75zM328 576l-26 -77l-97 -266h246l-95 266l-25 77h-3zM534 0l-55 153h-303l-55 -153h-103l255 649h113l257 -649h-109z" glyph-name="acircumflex.sc"/>
<glyph horiz-adv-x="662" d="M228 732h-45q4 41 27 67.5t58 26.5q32 0 69.5 -26.5t55.5 -26.5q30 0 41 40l46 -1q-4 -40 -27.5 -66t-58.5 -26q-31 0 -69 26t-56 26q-28 0 -41 -40zM328 576l-26 -77l-97 -266h246l-95 266l-25 77h-3zM534 0l-55 153h-303l-55 -153h-103l255 649h113l257 -649h-109z" glyph-name="atilde.sc"/>
<glyph horiz-adv-x="662" d="M455 769q0 -43 -44 -43t-44 43q0 42 44 42t44 -42zM292 769q0 -43 -44 -43t-44 43q0 42 44 42t44 -42zM328 576l-26 -77l-97 -266h246l-95 266l-25 77h-3zM534 0l-55 153h-303l-55 -153h-103l255 649h113l257 -649h-109z" glyph-name="adieresis.sc"/>
<glyph horiz-adv-x="662" d="M276 715q0 -42 54 -42q55 0 55 42t-55 42q-54 0 -54 -42zM328 576l-26 -77l-97 -266h246l-95 266l-25 77h-3zM224 716q0 38 26.5 60.5t78.5 22.5q50 0 77.5 -23t27.5 -60q0 -54 -45 -74l254 -642h-109l-55 153h-303l-55 -153h-103l252 641q-46 20 -46 75z" glyph-name="aring.sc"/>
<glyph horiz-adv-x="950" d="M451 579l-38 -72l-152 -274h227l-28 264l-6 81zM898 563h-345l20 -187h273v-77h-265l23 -214h303l-2 -85h-392l-16 153h-281l-85 -153h-117l386 649h495z" glyph-name="ae.sc"/>
<glyph horiz-adv-x="557" d="M239 -191l58 182q-129 11 -190.5 94t-61.5 244q0 167 74 249t229 82q91 0 162 -31l-12 -85q-67 29 -146 29q-111 0 -159 -55t-48 -189q0 -142 48.5 -198.5t160.5 -56.5q75 0 146 32l12 -79q-63 -32 -149 -37l-34 -181h-90z" glyph-name="ccedilla.sc"/>
<glyph horiz-adv-x="576" d="M381 697h-73l-117 131h110zM184 85h350l-3 -85h-443v649h428l2 -87h-334v-186h286v-77h-286v-214z" glyph-name="egrave.sc"/>
<glyph horiz-adv-x="576" d="M350 828h118l-137 -131h-79zM184 85h350l-3 -85h-443v649h428l2 -87h-334v-186h286v-77h-286v-214z" glyph-name="eacute.sc"/>
<glyph horiz-adv-x="576" d="M270 828h84l105 -131h-76l-70 95l-70 -95h-75zM184 85h350l-3 -85h-443v649h428l2 -87h-334v-186h286v-77h-286v-214z" glyph-name="ecircumflex.sc"/>
<glyph horiz-adv-x="576" d="M439 769q0 -43 -44 -43t-44 43q0 42 44 42t44 -42zM276 769q0 -43 -44 -43t-44 43q0 42 44 42t44 -42zM184 85h350l-3 -85h-443v649h428l2 -87h-334v-186h286v-77h-286v-214z" glyph-name="edieresis.sc"/>
<glyph horiz-adv-x="299" d="M216 697h-73l-117 131h110zM100 0v649h98v-649h-98z" glyph-name="igrave.sc"/>
<glyph horiz-adv-x="299" d="M184 828h118l-137 -131h-79zM100 0v649h98v-649h-98z" glyph-name="iacute.sc"/>
<glyph horiz-adv-x="299" d="M104 828h84l105 -131h-76l-70 95l-70 -95h-75zM100 0v649h98v-649h-98z" glyph-name="icircumflex.sc"/>
<glyph horiz-adv-x="299" d="M274 769q0 -43 -44 -43t-44 43q0 42 44 42t44 -42zM111 769q0 -43 -44 -43t-44 43q0 42 44 42t44 -42zM100 0v649h98v-649h-98z" glyph-name="idieresis.sc"/>
<glyph horiz-adv-x="676" d="M531 327q0 132 -45 183t-152 51h-143v-186h131v-70h-131v-218h143q106 0 151.5 51t45.5 189zM631 326q0 -171 -72 -248.5t-222 -77.5h-242v305h-78v70h78v274h240q156 0 226 -77t70 -246z" glyph-name="eth.sc"/>
<glyph horiz-adv-x="698" d="M246 732h-45q4 41 27 67.5t58 26.5q32 0 69.5 -26.5t55.5 -26.5q30 0 41 40l46 -1q-4 -40 -27.5 -66t-58.5 -26q-31 0 -69 26t-56 26q-28 0 -41 -40zM610 0h-76l-314 444l-45 67l-2 -1l1 -81v-429h-86v649h86l350 -495l2 1l-2 80v414h86v-649z" glyph-name="ntilde.sc"/>
<glyph horiz-adv-x="664" d="M401 697h-73l-117 131h110zM519 324q0 142 -41 195.5t-145 53.5t-146 -53.5t-42 -195.5q0 -141 42.5 -195.5t145.5 -54.5t144.5 54.5t41.5 195.5zM619 324q0 -177 -66.5 -256t-219.5 -79t-220.5 80t-67.5 255q0 176 67 255.5t221 79.5q153 0 219.5 -79.5t66.5 -255.5z " glyph-name="ograve.sc"/>
<glyph horiz-adv-x="664" d="M369 828h118l-137 -131h-79zM519 324q0 142 -41 195.5t-145 53.5t-146 -53.5t-42 -195.5q0 -141 42.5 -195.5t145.5 -54.5t144.5 54.5t41.5 195.5zM619 324q0 -177 -66.5 -256t-219.5 -79t-220.5 80t-67.5 255q0 176 67 255.5t221 79.5q153 0 219.5 -79.5t66.5 -255.5z " glyph-name="oacute.sc"/>
<glyph horiz-adv-x="664" d="M289 828h84l105 -131h-76l-70 95l-70 -95h-75zM519 324q0 142 -41 195.5t-145 53.5t-146 -53.5t-42 -195.5q0 -141 42.5 -195.5t145.5 -54.5t144.5 54.5t41.5 195.5zM619 324q0 -177 -66.5 -256t-219.5 -79t-220.5 80t-67.5 255q0 176 67 255.5t221 79.5 q153 0 219.5 -79.5t66.5 -255.5z" glyph-name="ocircumflex.sc"/>
<glyph horiz-adv-x="664" d="M232 732h-45q4 41 27 67.5t58 26.5q32 0 69.5 -26.5t55.5 -26.5q30 0 41 40l46 -1q-4 -40 -27.5 -66t-58.5 -26q-31 0 -69 26t-56 26q-28 0 -41 -40zM519 324q0 142 -41 195.5t-145 53.5t-146 -53.5t-42 -195.5q0 -141 42.5 -195.5t145.5 -54.5t144.5 54.5t41.5 195.5z M619 324q0 -177 -66.5 -256t-219.5 -79t-220.5 80t-67.5 255q0 176 67 255.5t221 79.5q153 0 219.5 -79.5t66.5 -255.5z" glyph-name="otilde.sc"/>
<glyph horiz-adv-x="664" d="M459 769q0 -43 -44 -43t-44 43q0 42 44 42t44 -42zM296 769q0 -43 -44 -43t-44 43q0 42 44 42t44 -42zM519 324q0 142 -41 195.5t-145 53.5t-146 -53.5t-42 -195.5q0 -141 42.5 -195.5t145.5 -54.5t144.5 54.5t41.5 195.5zM619 324q0 -177 -66.5 -256t-219.5 -79 t-220.5 80t-67.5 255q0 176 67 255.5t221 79.5q153 0 219.5 -79.5t66.5 -255.5z" glyph-name="odieresis.sc"/>
<glyph horiz-adv-x="664" d="M144 324q0 -103 22 -159l305 361q-41 47 -139 47q-104 0 -146 -53.5t-42 -195.5zM518 324q0 104 -22 160l-306 -360q42 -50 143 -50q102 0 143.5 54.5t41.5 195.5zM86 -15l-44 42l52 67q-49 78 -49 230q0 176 67 255.5t220 79.5q128 0 196 -56l54 64l44 -44l-57 -69 q49 -78 49 -230q0 -177 -66.5 -256t-219.5 -79q-131 0 -198 57z" glyph-name="oslash.sc"/>
<glyph horiz-adv-x="684" d="M411 697h-73l-117 131h110zM606 649v-406q0 -255 -263 -255q-265 0 -265 255v406h96v-406q0 -86 41.5 -126.5t127.5 -40.5q85 0 126 41t41 126v406h96z" glyph-name="ugrave.sc"/>
<glyph horiz-adv-x="684" d="M379 828h118l-137 -131h-79zM606 649v-406q0 -255 -263 -255q-265 0 -265 255v406h96v-406q0 -86 41.5 -126.5t127.5 -40.5q85 0 126 41t41 126v406h96z" glyph-name="uacute.sc"/>
<glyph horiz-adv-x="684" d="M299 828h84l105 -131h-76l-70 95l-70 -95h-75zM606 649v-406q0 -255 -263 -255q-265 0 -265 255v406h96v-406q0 -86 41.5 -126.5t127.5 -40.5q85 0 126 41t41 126v406h96z" glyph-name="ucircumflex.sc"/>
<glyph horiz-adv-x="684" d="M469 769q0 -43 -44 -43t-44 43q0 42 44 42t44 -42zM306 769q0 -43 -44 -43t-44 43q0 42 44 42t44 -42zM606 649v-406q0 -255 -263 -255q-265 0 -265 255v406h96v-406q0 -86 41.5 -126.5t127.5 -40.5q85 0 126 41t41 126v406h96z" glyph-name="udieresis.sc"/>
<glyph horiz-adv-x="627" d="M353 828h118l-137 -131h-79zM22 649h112l145 -277l36 -72h3l35 72l145 277h107l-240 -429v-220h-100v220z" glyph-name="yacute.sc"/>
<glyph horiz-adv-x="610" d="M461 332q0 68 -36.5 96t-122.5 28h-118v-251h118q86 0 122.5 28t36.5 99zM560 331q0 -102 -60.5 -153t-197.5 -51h-118v-127h-96v649h96v-111h118q137 0 197.5 -50t60.5 -157z" glyph-name="thorn.sc"/>
<glyph horiz-adv-x="627" d="M442 769q0 -43 -44 -43t-44 43q0 42 44 42t44 -42zM279 769q0 -43 -44 -43t-44 43q0 42 44 42t44 -42zM22 649h112l145 -277l36 -72h3l35 72l145 277h107l-240 -429v-220h-100v220z" glyph-name="ydieresis.sc"/>
<glyph horiz-adv-x="299" d="M100 0v649h98v-649h-98z" glyph-name="dotlessi.sc"/>
<glyph horiz-adv-x="754" d="M100 0v649h98v-649h-98zM675 649v-436q0 -115 -54 -170t-152 -55q-86 0 -137 37l7 83q48 -35 113 -35t96 34t31 105v437h96z" glyph-name="ij.sc"/>
<glyph horiz-adv-x="550" d="M203 88h322l-3 -88h-415v274l-72 -33l-5 81l77 35v292h96v-253l198 92l7 -83l-205 -93v-224z" glyph-name="lslash.sc"/>
<glyph horiz-adv-x="994" d="M514 324q0 142 -40.5 195t-143.5 53q-102 0 -143.5 -53t-41.5 -195q0 -141 41.5 -195t144.5 -54q101 0 142 54t41 195zM950 0h-429v82l-3 1q-58 -94 -205 -94q-140 0 -204 80t-64 255q0 176 64 255.5t205 79.5q148 0 204 -86h3v76h414l2 -87h-329v-186h281v-78h-281v-212 h344z" glyph-name="oe.sc"/>
<glyph horiz-adv-x="533" d="M320 697h-84l-103 131h76l69 -97l70 97h77zM490 187q0 -92 -61.5 -145t-173.5 -53q-117 0 -204 50l15 84q88 -51 189 -51q70 0 106.5 29t36.5 80q0 33 -25.5 56.5t-63 35t-82 27t-82 33t-63 54t-25.5 88.5q0 81 57 132.5t170 51.5q108 0 183 -36l-13 -81q-90 32 -167 32 q-72 0 -105 -26.5t-33 -67.5q0 -32 25.5 -54t63 -32.5t82 -26t82 -33.5t63 -56t25.5 -91z" glyph-name="scaron.sc"/>
<glyph horiz-adv-x="578" d="M332 697h-84l-103 131h76l69 -97l70 97h77zM525 0h-476v63l310 433l48 63l-1 2h-347l4 88h462v-72l-306 -424l-48 -62l1 -3h355z" glyph-name="zcaron.sc"/>
<glyph d="M156 828h84l105 -131h-76l-70 95l-70 -95h-75z" glyph-name="circumflex.sc"/>
<glyph d="M242 697h-84l-103 131h76l69 -97l70 97h77z" glyph-name="caron.sc"/>
<glyph d="M273 828h67q0 -136 -141 -136t-141 136h66q0 -87 75 -87q34 0 54 22t20 65z" glyph-name="breve.sc"/>
<glyph d="M256 765q0 -47 -56 -47q-29 0 -43 10.5t-14 36.5q0 46 57 46q56 0 56 -46z" glyph-name="dotaccent.sc"/>
<glyph d="M147 742q0 -42 54 -42q55 0 55 42t-55 42q-54 0 -54 -42zM95 743q0 38 26.5 60.5t78.5 22.5q50 0 77.5 -23t27.5 -60q0 -85 -105 -85t-105 85z" glyph-name="ring.sc"/>
<glyph d="M245 18l36 -18q-29 0 -49 -22t-20 -49q0 -50 60 -50q33 0 58 14l9 -53q-40 -23 -93 -23q-52 0 -80 23t-28 62q0 44 29.5 75t77.5 41z" glyph-name="ogonek.sc"/>
<glyph d="M99 732h-45q4 41 27 67.5t58 26.5q32 0 69.5 -26.5t55.5 -26.5q30 0 41 40l46 -1q-4 -40 -27.5 -66t-58.5 -26q-31 0 -69 26t-56 26q-28 0 -41 -40z" glyph-name="tilde.sc"/>
<glyph d="M331 828h100l-119 -131h-70zM173 828h99l-112 -131h-63z" glyph-name="hungarumlaut.sc"/>
<glyph horiz-adv-x="700" d="M552 395l-205 205l-51 -51l51 -51l-102 -103l51 -51l103 103l51 -52l-103 -102l52 -51zM563 395l-216 -215l-215 215l215 216z" glyph-name="fi.sc"/>
<glyph horiz-adv-x="700" d="M552 395l-205 205l-51 -51l51 -51l-102 -103l51 -51l103 103l51 -52l-103 -102l52 -51zM563 395l-216 -215l-215 215l215 216z" glyph-name="fl.sc"/>
<glyph horiz-adv-x="318" d="M164 314h56l-5 -78q42 -5 78 -17l-10 -58q-53 17 -95 17q-71 0 -71 -44q0 -22 29.5 -35.5t65 -20.5t65 -33t29.5 -70q0 -46 -27.5 -75.5t-79.5 -36.5l-3 -75h-56l4 74q-55 4 -97 27l10 60q49 -30 108 -30q74 0 74 51q0 19 -19.5 31t-47.5 20t-55.5 18t-47 33t-19.5 58 q0 42 27 71t82 35z" glyph-name="dollar.subs"/>
<glyph horiz-adv-x="158" d="M78 -77q43 0 43 -46q0 -19 -15 -52.5t-33 -57.5l-25 6l16 69q-29 12 -29 38q0 43 43 43z" glyph-name="comma.subs"/>
<glyph horiz-adv-x="158" d="M123 -116q0 -41 -44 -41t-44 41t44 41t44 -41z" glyph-name="period.subs"/>
<glyph horiz-adv-x="318" d="M291 219l-4 -57q-34 13 -75 13q-58 0 -81.5 -27t-23.5 -93q0 -68 26 -98t78 -30q44 0 79 18l5 -53q-33 -21 -79 -25l-3 -79h-57l4 81q-128 18 -128 186q0 169 143 182l5 77h57l-6 -78q28 -4 60 -17z" glyph-name="cent.subs"/>
<glyph horiz-adv-x="318" d="M164 959h56l-5 -78q42 -5 78 -17l-10 -58q-48 17 -95 17q-71 0 -71 -44q0 -22 29.5 -35.5t65 -20.5t65 -33t29.5 -70q0 -47 -27.5 -76t-79.5 -36l-3 -75h-56l4 74q-55 3 -97 27l10 60q49 -30 108 -30q74 0 74 51q0 19 -19.5 31t-47.5 20t-55.5 18t-47 33t-19.5 58 q0 42 27 71t82 35z" glyph-name="dollar.sups"/>
<glyph horiz-adv-x="158" d="M78 568q43 0 43 -46q0 -19 -15 -52.5t-33 -57.5l-25 6l16 70q-12 4 -20.5 14t-8.5 23q0 43 43 43z" glyph-name="comma.sups"/>
<glyph horiz-adv-x="158" d="M123 529q0 -41 -44 -41t-44 41t44 41t44 -41z" glyph-name="period.sups"/>
<glyph horiz-adv-x="318" d="M291 864l-4 -57q-34 13 -75 13q-58 0 -81.5 -27t-23.5 -93q0 -68 26 -98t78 -30q44 0 79 18l5 -53q-30 -21 -79 -25l-3 -79h-57l4 80q-128 20 -128 187q0 169 143 182l5 77h57l-6 -78q28 -4 60 -17z" glyph-name="cent.sups"/>
<glyph horiz-adv-x="649" d="M282 461l-25 -168h114l25 168h-114zM65 293h116l25 168h-140v76h149l29 213h75l-28 -213h114l28 213h74l-29 -213h108v-76h-117l-23 -168h139v-76h-149l-29 -217h-74l29 217h-115l-29 -217h-75l29 217h-107v76z" glyph-name="numbersign.tf"/>
<glyph horiz-adv-x="649" d="M170 563q0 -42 35 -66.5t102 -46.5l23 221q-80 -1 -120 -30t-40 -78zM494 195q0 48 -36 76.5t-106 54.5l-27 -254q169 1 169 123zM309 -83l-55 5l6 67q-110 10 -177 50q8 66 12 94q81 -48 174 -58l28 270q-49 18 -79.5 32.5t-65.5 39t-52 60t-17 81.5q0 97 66 149.5 t190 54.5l7 65l60 -4l-7 -64q81 -7 136 -33l-7 -89q-68 25 -139 31l-25 -237q46 -16 77.5 -31.5t64.5 -41t50 -63.5t17 -88q0 -112 -62.5 -165.5t-194.5 -55.5z" glyph-name="dollar.tf"/>
<glyph horiz-adv-x="649" d="M508 576l-6 -85q-59 27 -121 27q-96 0 -136.5 -50t-40.5 -166q0 -123 43.5 -176.5t131.5 -53.5q71 0 127 34l7 -78q-48 -34 -128 -40l-7 -132h-75l7 134q-204 27 -204 312q0 143 54 218t169 84l9 127h75l-9 -129q55 -6 104 -26z" glyph-name="cent.tf"/>
<glyph horiz-adv-x="649" d="M85 335l-4 79h52q-25 83 -25 133q0 95 63.5 154.5t203.5 59.5q103 0 186 -38l-14 -88q-72 34 -162 34q-91 0 -134 -36t-43 -97q0 -47 22 -122h262v-79h-243q8 -43 8 -89q0 -112 -76 -162l2 -3q87 19 211 19q84 0 205 -13q0 -1 -2 -46t-3 -47q-135 14 -244 14 q-142 0 -281 -13l-4 89q47 16 72.5 59t25.5 99q0 43 -9 93h-69z" glyph-name="sterling.tf"/>
<glyph horiz-adv-x="649" d="M209 362q0 -46 33.5 -78t80.5 -32q48 0 81 32t33 78t-33 78t-81 32q-47 0 -80.5 -32t-33.5 -78zM146 360q0 54 29 99l-65 68l49 54l68 -70q43 29 96 29t97 -30l70 71l50 -54l-68 -69q29 -45 29 -98t-26 -94l64 -65l-50 -54l-64 65q-46 -32 -102 -32t-101 31l-64 -65 l-49 55l63 64q-26 43 -26 95z" glyph-name="currency.tf"/>
<glyph horiz-adv-x="649" d="M141 338h106l-211 412h114l145 -341l30 -75h3l29 75l144 341h111l-204 -412h104v-63h-131v-49h132v-62h-132v-164h-107v164h-133v62h133v49h-133v63z" glyph-name="yen.tf"/>
<glyph horiz-adv-x="649" d="M27 181h85v569h463l2 -97h-363v-225h285l-1 -91h-284v-156h91v-72h-91v-109h-102v109h-85v72z" glyph-name="franc.tf"/>
<glyph horiz-adv-x="649" d="M89 402l-4 59h36q-12 46 -12 86q0 95 63.5 154.5t203.5 59.5q103 0 186 -38l-14 -88q-72 34 -162 34q-91 0 -134 -37.5t-43 -98.5q0 -37 9 -72h288v-59h-272q9 -35 14 -60h258v-58h-250q2 -24 2 -38q0 -112 -76 -162l2 -3q86 19 211 19q82 0 205 -13q0 -2 -2 -46.5 t-3 -46.5q-135 14 -244 14q-142 0 -281 -13l-5 89q47 16 73 59t26 99q0 16 -2 42h-70l-2 58h64q-3 12 -9 34t-7 26h-49z" glyph-name="lira.tf"/>
<glyph horiz-adv-x="652" d="M318 363q71 0 106 27t41 96h-281v-123h134zM184 664v-124h281q-5 68 -39.5 96t-107.5 28h-134zM621 486h-58q-6 -105 -64.5 -155.5t-180.5 -50.5h-134v-280h-95v486h-61v54h61v210h229q123 0 181.5 -49.5t63.5 -160.5h59z" glyph-name="peseta.tf"/>
<glyph horiz-adv-x="649" d="M500 343l-14 -56h-258q14 -111 69 -161t156 -50q87 0 170 47l8 -80q-83 -52 -201 -52q-141 0 -214.5 72.5t-89.5 223.5h-89v56h84v62h-84v58h88q17 141 96.5 217t215.5 76q112 0 181 -36l-21 -83q-68 27 -141 27q-197 0 -227 -201h309l-14 -58h-301v-62h277z" glyph-name="Euro.tf"/>
<glyph horiz-adv-x="597" d="M244 398l-23 -141h132l22 141h-131zM45 257h101l23 141h-124v70h134l26 181h75l-26 -181h131l26 181h73l-26 -181h94v-70h-104l-23 -141h127v-71h-136l-27 -186h-73l27 186h-132l-27 -186h-74l27 186h-92v71z" glyph-name="numbersign.tosf"/>
<glyph horiz-adv-x="597" d="M520 177q0 -79 -47.5 -129t-144.5 -59l-8 -136h-81l9 136q-102 8 -170 53l14 86q38 -27 92.5 -42t104.5 -15q68 0 100.5 26.5t32.5 69.5q0 36 -35.5 58t-86 35t-100.5 29t-85.5 53t-35.5 94q0 72 50.5 117t146.5 52l9 131h81l-10 -132q73 -7 140 -35l-10 -85 q-85 35 -175 35q-62 0 -96.5 -21t-34.5 -57q0 -29 25 -48t63 -28t82 -23t82 -30t63 -50.5t25 -84.5z" glyph-name="dollar.tosf"/>
<glyph horiz-adv-x="597" d="M461 314q0 135 -38 186.5t-124 51.5q-87 0 -125.5 -51.5t-38.5 -186.5q0 -137 38 -188t126 -51q86 0 124 51.5t38 187.5zM556 313q0 -169 -61 -246t-197 -77t-196.5 77t-60.5 246q0 174 60.5 250t197.5 76q136 0 196.5 -76.5t60.5 -249.5z" glyph-name="zero.tosf"/>
<glyph horiz-adv-x="597" d="M111 0v63h174v451l-198 -114l-10 83l248 149h57v-569h159v-63h-430z" glyph-name="one.tosf"/>
<glyph horiz-adv-x="597" d="M526 457q0 -48 -21 -92t-70.5 -92.5t-97 -86t-133.5 -99.5v-3h327l-3 -84h-456v65q32 27 89.5 73.5t86.5 71t69.5 62t60.5 63t35 56t15 58.5q0 46 -36.5 74.5t-111.5 28.5q-97 0 -183 -64l-27 78q97 73 224 73q112 0 172 -49t60 -133z" glyph-name="two.tosf"/>
<glyph horiz-adv-x="597" d="M531 163q0 -127 -103.5 -198.5t-291.5 -75.5l-8 80q158 3 235.5 56t77.5 136q0 115 -155 116q-28 0 -68 -6l-5 68q117 13 161 41.5t44 79.5q0 94 -142 94q-105 0 -187 -60l-23 77q37 31 95 49.5t121 18.5q109 0 165.5 -45.5t56.5 -120.5q0 -106 -97 -148v-2 q124 -33 124 -160z" glyph-name="three.tosf"/>
<glyph horiz-adv-x="597" d="M403 148l6 323l3 81l-2 1l-45 -68l-186 -271l-46 -63l1 -3h269zM574 68h-86v-172l-87 -6v178h-366l-7 64l354 506l106 -7v-483h89z" glyph-name="four.tosf"/>
<glyph horiz-adv-x="597" d="M533 177q0 -131 -102.5 -208t-295.5 -81l-9 84q154 4 233.5 56.5t79.5 138.5q0 118 -160 118q-91 0 -164 -38l-36 38l30 345h389l5 -92h-320l-16 -193q69 24 140 24q110 0 168 -50t58 -142z" glyph-name="five.tosf"/>
<glyph horiz-adv-x="597" d="M454 252q0 69 -35 101.5t-110 32.5q-42 0 -87 -19t-71 -50q1 -131 39 -184.5t117 -53.5q147 0 147 173zM548 252q0 -130 -61.5 -195.5t-180.5 -65.5q-123 0 -187.5 79.5t-64.5 255.5q0 200 110.5 307t284.5 112l15 -84q-142 -4 -223 -71.5t-94 -186.5l2 -2q76 62 177 62 q113 0 167.5 -52t54.5 -159z" glyph-name="six.tosf"/>
<glyph horiz-adv-x="597" d="M541 629v-82l-301 -647h-106l304 635h-381l6 94h478z" glyph-name="seven.tosf"/>
<glyph horiz-adv-x="597" d="M166 470q0 -20 9.5 -36t22 -26.5t37.5 -20t42 -14.5t51 -13q11 -3 16 -4q96 40 96 109q0 49 -33 73t-107 24q-72 0 -103 -23.5t-31 -68.5zM457 171q0 18 -5 32t-18.5 25.5t-24 19t-34.5 16t-36 12.5t-42.5 12t-41.5 11q-114 -45 -114 -122q0 -56 37.5 -82.5t124.5 -26.5 q154 0 154 103zM49 175q0 50 31 91.5t86 65.5v3q-90 42 -90 140q0 78 55 121t170 43q224 0 224 -165q0 -95 -94 -143v-2q121 -43 121 -153q0 -186 -251 -186q-252 0 -252 185z" glyph-name="eight.tosf"/>
<glyph horiz-adv-x="597" d="M444 350q-1 106 -37.5 153t-117.5 47q-138 0 -138 -137q0 -138 144 -138q110 0 149 75zM540 332q0 -217 -107.5 -327.5t-285.5 -114.5l-9 83q129 5 209.5 76t95.5 202l-2 1q-61 -61 -167 -61q-103 0 -160.5 55.5t-57.5 164.5q0 107 59.5 167.5t175.5 60.5q249 0 249 -307 z" glyph-name="nine.tosf"/>
<glyph horiz-adv-x="597" d="M530 571l-7 -87q-70 30 -144 30q-110 0 -157.5 -50.5t-47.5 -162.5q0 -120 52 -173t153 -53q87 0 149 38l8 -81q-58 -38 -153 -44l-8 -137h-79l8 139q-231 27 -231 310q0 286 253 302l10 134h79l-10 -135q69 -6 125 -30z" glyph-name="cent.tosf"/>
<glyph horiz-adv-x="597" d="M60 289l-4 72h46q-19 65 -19 104q0 85 59 139t193 54q98 0 178 -35l-13 -79q-67 30 -157 30q-86 0 -126 -31.5t-40 -84.5q0 -37 17 -97h252v-72h-234q8 -38 8 -77q0 -93 -64 -136l1 -2q83 15 198 15q87 0 192 -12l-6 -82q-141 12 -231 12q-141 0 -264 -11l-3 80 q43 13 65.5 49t22.5 82q0 39 -9 82h-62z" glyph-name="sterling.tosf"/>
<glyph horiz-adv-x="597" d="M189 330q0 -45 31.5 -75.5t76.5 -30.5q46 0 77.5 30.5t31.5 75.5q0 44 -31.5 74.5t-77.5 30.5q-45 0 -76.5 -30.5t-31.5 -74.5zM124 329q0 53 28 97l-63 64l49 54l65 -68q45 29 95 29t94 -29l67 68l49 -53l-65 -67q28 -44 28 -95q0 -50 -25 -91l62 -64l-49 -53l-62 63 q-43 -31 -99 -31t-99 31l-62 -64l-48 54l60 63q-25 41 -25 92z" glyph-name="currency.tosf"/>
<glyph horiz-adv-x="597" d="M124 293h101l-198 356h104l133 -270l34 -73h3l33 73l131 270h102l-193 -356h99v-53h-124v-51h124v-52h-124v-137h-99v137h-126v52h126v51h-126v53z" glyph-name="yen.tosf"/>
<glyph horiz-adv-x="597" d="M35 160h81l-1 489h436l2 -86h-344v-191h266v-82h-266v-130h85v-65h-85v-95h-93v95h-81v65z" glyph-name="franc.tosf"/>
<glyph horiz-adv-x="597" d="M67 347l-4 51h32q-9 32 -9 67q0 85 59.5 139t192.5 54q98 0 178 -35l-13 -79q-67 30 -157 30q-86 0 -126 -31.5t-40 -84.5q0 -27 7 -60h274v-51h-260q10 -34 14 -52h246v-50h-239q2 -22 2 -33q0 -93 -65 -136l1 -2q83 15 198 15q89 0 192 -12l-6 -82q-141 12 -231 12 q-141 0 -264 -11l-3 80q43 13 65.5 49t22.5 82q0 14 -2 38h-63l-2 50h57q-4 18 -14 52h-43z" glyph-name="lira.tosf"/>
<glyph horiz-adv-x="597" d="M297 319q64 0 95 21.5t37 78.5h-258v-100h126zM171 569v-103h258q-4 56 -35 79.5t-97 23.5h-126zM582 419h-61q-6 -90 -59.5 -133t-164.5 -43h-125v-243h-90v419h-57v47h57v183h215q112 0 165.5 -44t58.5 -139h61v-47z" glyph-name="peseta.tosf"/>
<glyph horiz-adv-x="597" d="M559 622l-25 -78q-60 29 -138 29q-94 0 -143.5 -37.5t-63.5 -117.5h307l-19 -55h-294q-1 -11 -1 -33q0 -25 1 -36h272l-19 -52h-247q15 -89 66.5 -129.5t139.5 -40.5t153 43l6 -79q-73 -49 -183 -49q-254 0 -290 255h-48v52h43v69h-43v55h49q36 242 292 242 q107 0 185 -38z" glyph-name="Euro.tosf"/>
<glyph horiz-adv-x="626" d="M355 315q0 -51 -42 -51q-22 0 -32.5 11t-10.5 40q0 51 43 51q42 0 42 -51zM478 314q0 133 -38.5 183.5t-127.5 50.5q-88 0 -127 -51t-39 -183q0 -133 39 -183.5t127 -50.5q89 0 127.5 50.5t38.5 183.5zM570 313q0 -169 -61 -246t-196 -77q-136 0 -197 77t-61 246 q0 174 60.5 250t198.5 76q135 0 195.5 -76.5t60.5 -249.5z" glyph-name="zero.zero"/>
<glyph d="M203 787q52 0 52 -48q0 -39 -71 -116l-24 11l26 73q-33 7 -33 39q0 41 50 41z" glyph-name="commaaccent"/>
<glyph d="M202 668q-51 0 -51 47q0 38 71 117l24 -11l-27 -73q33 -8 33 -40q0 -40 -50 -40z" glyph-name="commaccentturn"/>
<glyph horiz-adv-x="697" d="M603 749q0 -52 -62 -52t-62 52q0 51 62 51t62 -51zM216 0h-94v523h-89v73h88v27q0 79 48.5 126t147.5 47q46 0 80 -9l-3 -66q-28 7 -58 7q-120 0 -120 -106v-26h372v-605q0 -149 -143 -149q-36 0 -69 12l5 70q23 -7 42 -7q71 0 71 77v529h-278v-523z" glyph-name="f_j"/>
<glyph horiz-adv-x="716" d="M400 342l-23 35q94 39 136 86q27 -25 27 -83q-54 -26 -140 -38zM341 377l-23 -35q-85 12 -139 38q0 59 27 83q41 -47 135 -86zM458 204q-45 12 -97 12q-53 0 -99 -12q-35 39 -48 94q68 -24 144 -24q79 0 146 24q-13 -58 -46 -94zM359 35q24 0 50.5 26t52.5 63.5t35 46.5 q42 46 78 125t36 159q0 57 -54 79t-198 22q-147 0 -200 -21.5t-53 -79.5q0 -80 36 -159t78 -125q9 -8 35.5 -46t53 -64t50.5 -26zM358 -13q-34 0 -67 30t-67 78.5t-40 55.5q-50 56 -90.5 151t-40.5 193q0 122 72.5 196t232.5 74t232.5 -74t72.5 -196q0 -98 -40.5 -193.5 t-91.5 -150.5q-9 -10 -31 -41t-41 -56t-47 -46t-54 -21z" glyph-name="orn001"/>
<glyph d="M201 -40q61 0 61 -44q0 -42 -82 -116l-29 10l29 72q-38 7 -38 39q0 39 59 39z" glyph-name="undercommaaccent"/>
</font>
</defs>
</svg>
